<svg width="961" height="357" viewBox="0 0 961 357" fill="none" xmlns="http://www.w3.org/2000/svg">
<g clip-path="url(#clip0)">
<path d="M85.3431 267.933V266.585H90.9128V267.933L89.1769 268.231V273.569H96.6956V268.231L94.9597 267.933V266.585H100.529V267.933L98.7935 268.231V280.404L100.529 280.702V282.038H94.9597V280.702L96.6956 280.404V275.214H89.1769V280.404L90.9128 280.702V282.038H85.3431V280.702L87.079 280.404V268.231L85.3431 267.933Z" fill="#999591"/>
<path d="M109.816 282.038C109.752 281.728 109.702 281.447 109.667 281.201C109.631 280.953 109.606 280.705 109.592 280.458C109.188 280.974 108.68 281.406 108.069 281.751C107.466 282.091 106.82 282.262 106.131 282.262C104.931 282.262 104.019 281.972 103.394 281.392C102.769 280.804 102.457 279.98 102.457 278.918C102.457 277.829 102.897 276.99 103.778 276.402C104.665 275.808 105.879 275.511 107.42 275.511H109.582V274.174C109.582 273.502 109.369 272.97 108.943 272.583C108.517 272.186 107.924 271.987 107.164 271.987C106.639 271.987 106.174 272.055 105.769 272.189C105.371 272.324 105.048 272.508 104.8 272.741L104.576 273.951H102.957V271.722C103.483 271.305 104.118 270.973 104.864 270.725C105.609 270.47 106.419 270.343 107.292 270.343C108.598 270.343 109.656 270.675 110.465 271.34C111.275 272.006 111.679 272.956 111.679 274.196V279.724C111.679 279.873 111.679 280.019 111.679 280.16C111.687 280.301 111.697 280.443 111.711 280.585L112.563 280.702V282.038H109.816ZM106.44 280.511C107.136 280.511 107.771 280.345 108.346 280.011C108.921 279.679 109.333 279.279 109.582 278.813V276.924H107.345C106.486 276.924 105.805 277.121 105.3 277.518C104.803 277.913 104.555 278.395 104.555 278.961C104.555 279.464 104.711 279.849 105.024 280.118C105.336 280.379 105.808 280.511 106.44 280.511Z" fill="#999591"/>
<path d="M114.31 280.702L116.046 280.404V272.2L114.31 271.903V270.554H118.144V280.404L119.88 280.702V282.038H114.31V280.702ZM118.144 267.615H116.046V265.481H118.144V267.615Z" fill="#999591"/>
<path d="M121.488 271.903V270.554H125.098L125.3 272.221C125.627 271.633 126.028 271.174 126.504 270.841C126.987 270.509 127.537 270.343 128.154 270.343C128.318 270.343 128.485 270.357 128.655 270.385C128.832 270.407 128.967 270.432 129.06 270.459L128.783 272.401L127.59 272.338C127.036 272.338 126.571 272.469 126.195 272.73C125.819 272.986 125.528 273.346 125.322 273.812V280.404L127.058 280.702V282.038H121.488V280.702L123.224 280.404V272.2L121.488 271.903Z" fill="#999591"/>
<path d="M135.481 280.627C136.177 280.627 136.788 280.415 137.313 279.99C137.846 279.559 138.112 279.031 138.112 278.409H139.997L140.018 278.473C140.054 279.464 139.61 280.345 138.687 281.116C137.771 281.88 136.703 282.262 135.481 282.262C133.806 282.262 132.524 281.717 131.637 280.627C130.757 279.537 130.316 278.169 130.316 276.52V276.074C130.316 274.439 130.76 273.077 131.648 271.987C132.535 270.891 133.813 270.343 135.481 270.343C136.404 270.343 137.231 270.495 137.963 270.799C138.701 271.103 139.312 271.52 139.794 272.051L139.89 274.599H138.218L137.76 272.794C137.512 272.553 137.193 272.359 136.802 272.21C136.412 272.062 135.971 271.987 135.481 271.987C134.381 271.987 133.593 272.384 133.117 273.177C132.649 273.961 132.414 274.928 132.414 276.074V276.52C132.414 277.694 132.649 278.674 133.117 279.459C133.586 280.238 134.374 280.627 135.481 280.627Z" fill="#999591"/>
<path d="M150.306 280.34C149.944 280.956 149.475 281.43 148.9 281.762C148.332 282.096 147.675 282.262 146.93 282.262C145.68 282.262 144.704 281.862 144.001 281.063C143.298 280.263 142.947 279.017 142.947 277.327V272.2L141.626 271.903V270.554H145.045V277.347C145.045 278.572 145.226 279.414 145.588 279.873C145.95 280.334 146.514 280.563 147.281 280.563C148.027 280.563 148.641 280.415 149.124 280.118C149.613 279.813 149.983 279.385 150.231 278.833V272.2L148.687 271.903V270.554H152.329V280.404L153.65 280.702V282.038H150.444L150.306 280.34Z" fill="#999591"/>
<path d="M158.974 267.784V270.554H161.157V272.105H158.974V279.078C158.974 279.616 159.084 279.994 159.304 280.213C159.532 280.433 159.83 280.542 160.199 280.542C160.384 280.542 160.59 280.528 160.816 280.5C161.05 280.464 161.246 280.429 161.403 280.393L161.689 281.826C161.491 281.955 161.201 282.057 160.816 282.135C160.433 282.22 160.05 282.262 159.667 282.262C158.814 282.262 158.136 282.007 157.632 281.497C157.128 280.981 156.877 280.174 156.877 279.078V272.105H155.055V270.554H156.877V267.784H158.974Z" fill="#999591"/>
<path d="M172.116 274.163H170.54L170.199 272.784C169.943 272.542 169.621 272.352 169.23 272.21C168.847 272.062 168.409 271.987 167.921 271.987C167.175 271.987 166.621 272.15 166.258 272.476C165.897 272.801 165.716 273.194 165.716 273.654C165.716 274.107 165.875 274.464 166.195 274.726C166.514 274.988 167.164 275.221 168.144 275.427C169.599 275.737 170.681 276.162 171.392 276.7C172.102 277.231 172.457 277.946 172.457 278.844C172.457 279.862 172.042 280.688 171.21 281.317C170.387 281.947 169.307 282.262 167.974 282.262C167.1 282.262 166.316 282.162 165.619 281.964C164.925 281.759 164.303 281.466 163.757 281.083L163.746 278.462H165.322L165.716 280.001C165.957 280.221 166.283 280.379 166.696 280.478C167.114 280.577 167.541 280.627 167.974 280.627C168.72 280.627 169.301 280.478 169.72 280.182C170.146 279.876 170.359 279.481 170.359 278.992C170.359 278.533 170.182 278.153 169.827 277.857C169.478 277.559 168.814 277.302 167.836 277.082C166.437 276.778 165.382 276.364 164.672 275.841C163.961 275.317 163.606 274.61 163.606 273.718C163.606 272.784 164.005 271.987 164.801 271.329C165.602 270.672 166.643 270.343 167.921 270.343C168.794 270.343 169.577 270.456 170.274 270.683C170.97 270.909 171.548 271.224 172.009 271.627L172.116 274.163Z" fill="#999591"/>
<path d="M179.688 277.879C179.688 277.015 179.937 276.261 180.433 275.618C180.938 274.966 181.687 274.315 182.681 273.665C182.127 272.964 181.715 272.341 181.445 271.796C181.175 271.244 181.04 270.678 181.04 270.098C181.04 268.902 181.384 267.983 182.073 267.339C182.769 266.688 183.724 266.362 184.939 266.362C186.06 266.362 186.972 266.685 187.675 267.328C188.379 267.972 188.729 268.747 188.729 269.653C188.729 270.346 188.542 270.948 188.165 271.457C187.796 271.959 187.245 272.476 186.515 273.006L185.353 273.856L188.974 278.197C189.266 277.736 189.492 277.228 189.657 276.668C189.819 276.109 189.902 275.518 189.902 274.895H191.775C191.775 275.822 191.637 276.682 191.359 277.474C191.083 278.267 190.682 278.978 190.156 279.608L192.127 281.986L192.105 282.038H189.666L188.762 280.956C188.194 281.381 187.564 281.706 186.876 281.933C186.187 282.152 185.474 282.262 184.736 282.262C183.196 282.262 181.967 281.855 181.051 281.041C180.142 280.227 179.688 279.172 179.688 277.879ZM184.736 280.627C185.247 280.627 185.751 280.542 186.248 280.373C186.746 280.196 187.214 279.945 187.654 279.619L183.81 275.002L183.383 275.309C182.738 275.791 182.309 276.25 182.094 276.689C181.888 277.128 181.786 277.524 181.786 277.879C181.786 278.678 182.039 279.335 182.543 279.852C183.047 280.37 183.777 280.627 184.736 280.627ZM183.138 270.076C183.138 270.452 183.234 270.844 183.427 271.255C183.617 271.658 183.906 272.1 184.289 272.583L185.758 271.573C186.162 271.305 186.437 271.015 186.578 270.703C186.727 270.385 186.801 270.035 186.801 269.653C186.801 269.22 186.628 268.839 186.28 268.507C185.939 268.173 185.492 268.007 184.939 268.007C184.363 268.007 183.92 268.209 183.607 268.612C183.295 269.009 183.138 269.496 183.138 270.076Z" fill="#999591"/>
<path d="M210.051 271.15H208.463L208.069 268.941C207.749 268.673 207.324 268.45 206.791 268.273C206.259 268.096 205.642 268.007 204.938 268.007C203.824 268.007 202.968 268.245 202.372 268.718C201.775 269.186 201.477 269.797 201.477 270.554C201.477 271.227 201.778 271.79 202.382 272.243C202.993 272.688 203.976 273.08 205.333 273.42C206.965 273.823 208.204 274.419 209.049 275.204C209.9 275.988 210.327 276.962 210.327 278.122C210.327 279.368 209.815 280.37 208.793 281.126C207.779 281.883 206.447 282.262 204.799 282.262C203.607 282.262 202.546 282.068 201.616 281.679C200.693 281.289 199.941 280.779 199.357 280.149V277.273H200.935L201.338 279.492C201.743 279.824 202.227 280.097 202.786 280.309C203.348 280.522 204.019 280.627 204.799 280.627C205.857 280.627 206.692 280.404 207.303 279.959C207.92 279.512 208.229 278.907 208.229 278.144C208.229 277.435 207.963 276.844 207.43 276.371C206.898 275.889 205.956 275.486 204.609 275.162C202.968 274.772 201.687 274.199 200.764 273.442C199.841 272.685 199.379 271.733 199.379 270.587C199.379 269.377 199.894 268.372 200.924 267.572C201.952 266.765 203.29 266.362 204.938 266.362C206.025 266.362 207.011 266.55 207.898 266.925C208.793 267.293 209.511 267.742 210.051 268.273V271.15Z" fill="#999591"/>
<path d="M212.02 280.702L213.756 280.404V267.127L212.02 266.829V265.481H215.854V272.083C216.251 271.531 216.738 271.103 217.314 270.799C217.887 270.495 218.526 270.343 219.231 270.343C220.465 270.343 221.423 270.711 222.106 271.446C222.787 272.182 223.128 273.315 223.128 274.842V280.404L224.863 280.702V282.038H219.294V280.702L221.03 280.404V274.822C221.03 273.873 220.823 273.173 220.412 272.721C220.007 272.268 219.401 272.041 218.592 272.041C218.016 272.041 217.49 272.178 217.014 272.454C216.546 272.724 216.16 273.091 215.854 273.558V280.404L217.59 280.702V282.038H212.02V280.702Z" fill="#999591"/>
<path d="M233.905 282.038C233.841 281.728 233.792 281.447 233.756 281.201C233.72 280.953 233.696 280.705 233.682 280.458C233.277 280.974 232.77 281.406 232.159 281.751C231.555 282.091 230.909 282.262 230.22 282.262C229.021 282.262 228.108 281.972 227.483 281.392C226.859 280.804 226.546 279.98 226.546 278.918C226.546 277.829 226.986 276.99 227.867 276.402C228.754 275.808 229.969 275.511 231.509 275.511H233.671V274.174C233.671 273.502 233.458 272.97 233.032 272.583C232.605 272.186 232.013 271.987 231.253 271.987C230.729 271.987 230.264 272.055 229.859 272.189C229.46 272.324 229.138 272.508 228.889 272.741L228.666 273.951H227.047V271.722C227.573 271.305 228.207 270.973 228.953 270.725C229.699 270.47 230.509 270.343 231.382 270.343C232.688 270.343 233.745 270.675 234.555 271.34C235.364 272.006 235.769 272.956 235.769 274.196V279.724C235.769 279.873 235.769 280.019 235.769 280.16C235.775 280.301 235.786 280.443 235.8 280.585L236.653 280.702V282.038H233.905ZM230.529 280.511C231.225 280.511 231.861 280.345 232.435 280.011C233.01 279.679 233.423 279.279 233.671 278.813V276.924H231.434C230.575 276.924 229.894 277.121 229.39 277.518C228.893 277.913 228.644 278.395 228.644 278.961C228.644 279.464 228.801 279.849 229.113 280.118C229.424 280.379 229.898 280.511 230.529 280.511Z" fill="#999591"/>
<path d="M242.181 271.903L240.796 272.114L243.17 278.653L243.362 279.481H243.426L243.628 278.653L245.929 272.114L244.533 271.903V270.554H248.984V271.903L248.037 272.062L244.172 282.038H242.585L238.676 272.062L237.728 271.903V270.554H242.181V271.903Z" fill="#999591"/>
<path d="M255.524 282.262C253.919 282.262 252.641 281.731 251.691 280.669C250.746 279.602 250.273 278.219 250.273 276.52V276.052C250.273 274.419 250.76 273.06 251.732 271.976C252.713 270.887 253.87 270.343 255.205 270.343C256.753 270.343 257.924 270.81 258.719 271.744C259.521 272.677 259.923 273.923 259.923 275.48V276.786H252.446L252.415 276.838C252.435 277.942 252.716 278.851 253.255 279.566C253.795 280.273 254.552 280.627 255.524 280.627C256.233 280.627 256.855 280.528 257.387 280.329C257.927 280.125 258.392 279.845 258.783 279.492L259.603 280.85C259.191 281.246 258.645 281.582 257.962 281.858C257.288 282.127 256.475 282.262 255.524 282.262ZM255.205 271.987C254.501 271.987 253.902 272.285 253.404 272.879C252.908 273.467 252.603 274.206 252.489 275.098L252.509 275.151H257.824V274.875C257.824 274.054 257.604 273.367 257.164 272.815C256.723 272.263 256.07 271.987 255.205 271.987Z" fill="#999591"/>
<path d="M270.816 274.163H269.24L268.899 272.784C268.645 272.542 268.321 272.352 267.93 272.21C267.547 272.062 267.111 271.987 266.621 271.987C265.875 271.987 265.321 272.15 264.96 272.476C264.597 272.801 264.416 273.194 264.416 273.654C264.416 274.107 264.575 274.464 264.895 274.726C265.214 274.988 265.864 275.221 266.844 275.427C268.301 275.737 269.383 276.162 270.092 276.7C270.802 277.231 271.157 277.946 271.157 278.844C271.157 279.862 270.742 280.688 269.912 281.317C269.088 281.947 268.009 282.262 266.674 282.262C265.801 282.262 265.016 282.162 264.321 281.964C263.625 281.759 263.003 281.466 262.457 281.083L262.446 278.462H264.022L264.416 280.001C264.658 280.221 264.985 280.379 265.396 280.478C265.815 280.577 266.241 280.627 266.674 280.627C267.42 280.627 268.001 280.478 268.42 280.182C268.847 279.876 269.059 279.481 269.059 278.992C269.059 278.533 268.882 278.153 268.527 277.857C268.18 277.559 267.516 277.302 266.536 277.082C265.137 276.778 264.082 276.364 263.373 275.841C262.663 275.317 262.308 274.61 262.308 273.718C262.308 272.784 262.705 271.987 263.501 271.329C264.302 270.672 265.343 270.343 266.621 270.343C267.494 270.343 268.279 270.456 268.974 270.683C269.67 270.909 270.249 271.224 270.711 271.627L270.816 274.163Z" fill="#999591"/>
<path d="M128.943 88.5589L130.093 88.3997L135.513 74.4426H137.313L142.638 88.3997L143.777 88.5589V89.8963H139.326V88.5589L140.497 88.3573L139.475 85.5128H133.266L132.212 88.3573L133.384 88.5589V89.8963H128.943V88.5589ZM133.916 83.7615H138.836L136.429 77.1279H136.365L133.916 83.7615Z" fill="#999591"/>
<path d="M148.048 79.7601L146.727 79.9937L148.229 85.7145L148.474 87.1049H148.538L148.836 85.7145L151.136 78.4122H152.819L155.131 85.7145L155.46 87.2641H155.525L155.833 85.7145L157.249 79.9937L155.908 79.7601V78.4122H160.295V79.7601L159.293 79.9087L156.387 89.8963H154.693L152.457 82.9018L151.978 80.9701L151.914 80.9807L151.467 82.9018L149.273 89.8963H147.579L144.672 79.9087L143.66 79.7601V78.4122H148.048V79.7601Z" fill="#999591"/>
<path d="M167.26 90.1192C165.655 90.1192 164.377 89.5885 163.426 88.5271C162.482 87.4587 162.009 86.0753 162.009 84.3771V83.9101C162.009 82.2756 162.496 80.9171 163.468 79.8344C164.448 78.7448 165.605 78.1999 166.941 78.1999C168.489 78.1999 169.659 78.6669 170.455 79.6009C171.257 80.5349 171.659 81.7803 171.659 83.337V84.6425H164.182L164.151 84.6955C164.171 85.7994 164.452 86.7086 164.991 87.4233C165.531 88.1309 166.288 88.4847 167.26 88.4847C167.971 88.4847 168.591 88.3856 169.123 88.1875C169.663 87.9823 170.128 87.7028 170.519 87.349L171.339 88.7076C170.927 89.1038 170.381 89.4399 169.698 89.7158C169.024 89.9847 168.211 90.1192 167.26 90.1192ZM166.941 79.8451C166.238 79.8451 165.638 80.1422 165.14 80.7366C164.644 81.3239 164.338 82.0633 164.225 82.9549L164.247 83.008H169.56V82.732C169.56 81.9112 169.34 81.2248 168.9 80.6729C168.459 80.121 167.806 79.8451 166.941 79.8451Z" fill="#999591"/>
<path d="M182.552 82.0209H180.976L180.635 80.6411C180.381 80.4005 180.057 80.2095 179.667 80.0679C179.283 79.9194 178.847 79.8451 178.357 79.8451C177.611 79.8451 177.057 80.0078 176.696 80.3333C176.333 80.6588 176.153 81.0515 176.153 81.5114C176.153 81.9643 176.313 82.3216 176.632 82.5834C176.952 82.8452 177.6 83.0787 178.58 83.2839C180.036 83.5953 181.119 84.0198 181.829 84.5576C182.538 85.0883 182.893 85.8029 182.893 86.7015C182.893 87.7205 182.478 88.5448 181.648 89.1746C180.824 89.8043 179.745 90.1192 178.41 90.1192C177.536 90.1192 176.752 90.0201 176.057 89.822C175.361 89.6168 174.74 89.3231 174.193 88.9411L174.182 86.3194H175.758L176.153 87.8584C176.393 88.0778 176.721 88.237 177.132 88.3361C177.55 88.4351 177.977 88.4847 178.41 88.4847C179.156 88.4847 179.737 88.3361 180.156 88.0389C180.582 87.7346 180.795 87.3384 180.795 86.8501C180.795 86.3902 180.618 86.0117 180.263 85.7145C179.915 85.4173 179.252 85.159 178.272 84.9397C176.873 84.6354 175.818 84.2215 175.109 83.6979C174.399 83.1742 174.044 82.4667 174.044 81.5751C174.044 80.6411 174.441 79.8451 175.236 79.187C176.038 78.5289 177.079 78.1999 178.357 78.1999C179.23 78.1999 180.015 78.3131 180.711 78.5396C181.406 78.766 181.984 79.0809 182.447 79.4842L182.552 82.0209Z" fill="#999591"/>
<path d="M184.864 84.0481C184.864 82.3499 185.325 80.9524 186.248 79.8557C187.171 78.7518 188.424 78.1999 190.007 78.1999C191.598 78.1999 192.855 78.7483 193.777 79.8451C194.708 80.9418 195.173 82.3428 195.173 84.0481V84.2816C195.173 85.994 194.711 87.395 193.788 88.4847C192.865 89.5743 191.612 90.1192 190.029 90.1192C188.431 90.1192 187.171 89.5743 186.248 88.4847C185.325 87.3879 184.864 85.9869 184.864 84.2816V84.0481ZM186.961 84.2816C186.961 85.4987 187.217 86.5034 187.729 87.2959C188.247 88.0884 189.013 88.4847 190.029 88.4847C191.023 88.4847 191.778 88.0884 192.298 87.2959C192.816 86.5034 193.075 85.4987 193.075 84.2816V84.0481C193.075 82.8452 192.816 81.844 192.298 81.0444C191.778 80.2448 191.015 79.8451 190.007 79.8451C188.999 79.8451 188.239 80.2448 187.729 81.0444C187.217 81.844 186.961 82.8452 186.961 84.0481V84.2816Z" fill="#999591"/>
<path d="M196.685 88.5589L198.421 88.2618V80.0573L196.685 79.7602V78.4122H200.305L200.445 79.9087C200.814 79.3639 201.288 78.9429 201.871 78.6457C202.453 78.3485 203.128 78.1999 203.895 78.1999C204.661 78.1999 205.317 78.3768 205.865 78.7306C206.419 79.0844 206.834 79.6151 207.11 80.3227C207.473 79.6717 207.952 79.1552 208.548 78.7731C209.145 78.391 209.84 78.1999 210.635 78.1999C211.814 78.1999 212.745 78.6033 213.426 79.4099C214.108 80.2095 214.449 81.4159 214.449 83.0292V88.2618L216.185 88.5589V89.8963H210.604V88.5589L212.34 88.2618V83.008C212.34 81.8758 212.145 81.0763 211.754 80.6092C211.363 80.1352 210.784 79.8981 210.018 79.8981C209.286 79.8981 208.697 80.1564 208.25 80.6729C207.81 81.1824 207.554 81.8263 207.484 82.6046V88.2618L209.22 88.5589V89.8963H203.65V88.5589L205.386 88.2618V83.008C205.386 81.9324 205.183 81.147 204.778 80.6517C204.381 80.1493 203.802 79.8981 203.042 79.8981C202.403 79.8981 201.878 80.029 201.467 80.2908C201.054 80.5526 200.739 80.9206 200.519 81.3947V88.2618L202.254 88.5589V89.8963H196.685V88.5589Z" fill="#999591"/>
<path d="M222.872 90.1192C221.268 90.1192 219.99 89.5885 219.038 88.5271C218.094 87.4587 217.622 86.0753 217.622 84.3771V83.9101C217.622 82.2756 218.108 80.9171 219.082 79.8344C220.06 78.7448 221.219 78.1999 222.553 78.1999C224.1 78.1999 225.271 78.6669 226.067 79.6009C226.869 80.5349 227.27 81.7803 227.27 83.337V84.6425H219.795L219.762 84.6955C219.784 85.7994 220.065 86.7086 220.605 87.4233C221.143 88.1309 221.9 88.4847 222.872 88.4847C223.582 88.4847 224.203 88.3856 224.736 88.1875C225.276 87.9823 225.741 87.7028 226.13 87.349L226.951 88.7076C226.54 89.1038 225.992 89.4399 225.312 89.7158C224.637 89.9847 223.824 90.1192 222.872 90.1192ZM222.553 79.8451C221.85 79.8451 221.25 80.1422 220.753 80.7366C220.256 81.3239 219.95 82.0633 219.837 82.9549L219.859 83.008H225.172V82.732C225.172 81.9112 224.952 81.2248 224.513 80.6729C224.072 80.121 223.419 79.8451 222.553 79.8451Z" fill="#999591"/>
<path d="M352.103 238.837H-4.65266V241.942H352.103V238.837Z" fill="#FF9000"/>
<path d="M356.756 114.739H0V117.844H356.756V114.739Z" fill="#FF9000"/>
<path d="M82.6303 174.944V196.768C82.6303 198.623 82.2523 200.39 81.4961 202.071C80.7982 203.694 79.8385 205.115 78.6172 206.332C77.3958 207.549 75.9417 208.506 74.2551 209.201C72.6266 209.955 70.8818 210.332 69.0206 210.332C67.1594 210.332 65.4146 209.984 63.786 209.288C62.1576 208.593 60.7326 207.665 59.5112 206.506C58.2898 205.289 57.3011 203.897 56.5451 202.332C55.847 200.709 55.4691 198.97 55.4109 197.115V181.03C55.2364 179.233 54.4221 177.929 52.9681 177.118C53.7823 176.712 54.5965 176.509 55.4109 176.509V155.989C55.4691 154.134 55.847 152.395 56.5451 150.772C57.3011 149.149 58.2898 147.758 59.5112 146.599C60.7326 145.382 62.1576 144.425 63.786 143.73C65.4146 143.034 67.1594 142.686 69.0206 142.686C70.8818 142.686 72.6266 143.063 74.2551 143.816C75.9417 144.512 77.3958 145.468 78.6172 146.686C79.8385 147.903 80.7982 149.352 81.4961 151.033C82.2523 152.656 82.6303 154.424 82.6303 156.337C82.6303 157.322 82.7176 158.047 82.892 158.511C83.1247 158.974 83.3573 159.351 83.5899 159.641C83.8226 159.931 84.0262 160.192 84.2007 160.423C84.4333 160.655 84.5496 161.032 84.5496 161.554H80.013C79.0824 161.438 78.6172 160.945 78.6172 160.076C78.6172 160.945 78.1519 161.438 77.2212 161.554H72.5976C72.5976 161.032 72.6847 160.655 72.8592 160.423C73.0918 160.192 73.3245 159.931 73.5571 159.641C73.7897 159.351 73.9934 158.974 74.1678 158.511C74.4005 158.047 74.5168 157.293 74.5168 156.25V156.163C74.5168 155.409 74.4878 154.511 74.4296 153.468C74.3715 152.366 74.1678 151.323 73.8189 150.338C73.4699 149.352 72.9173 148.512 72.1613 147.816C71.4052 147.12 70.3582 146.773 69.0206 146.773C67.6248 146.773 66.5488 147.149 65.7926 147.903C65.0947 148.599 64.5712 149.439 64.2223 150.424C63.8733 151.41 63.6697 152.453 63.6116 153.555C63.5534 154.656 63.5244 155.583 63.5244 156.337V176.509C64.3386 176.509 65.1528 176.712 65.967 177.118C64.5131 177.929 63.6989 179.233 63.5244 181.03V196.768C63.5244 197.521 63.5534 198.449 63.6116 199.55C63.6697 200.593 63.8733 201.637 64.2223 202.68C64.5712 203.666 65.0947 204.506 65.7926 205.202C66.5488 205.897 67.6248 206.245 69.0206 206.245C70.4164 206.245 71.4634 205.897 72.1613 205.202C72.9173 204.506 73.4699 203.666 73.8189 202.68C74.1678 201.637 74.3715 200.593 74.4296 199.55C74.4878 198.449 74.5168 197.521 74.5168 196.768V178.943C73.877 179.001 73.3245 179.262 72.8592 179.726C72.4521 180.19 72.2485 180.74 72.2485 181.378V181.465C72.1903 182.334 71.9577 183.088 71.5505 183.726C71.2016 184.305 70.6782 184.827 69.9803 185.291C69.2824 185.696 68.2645 185.899 66.9267 185.899V174.944H82.6303ZM60.1219 172.422C60.1219 172.074 60.0929 171.727 60.0347 171.379C60.0347 171.031 60.0347 170.712 60.0347 170.422V168.423C59.9766 167.147 59.9474 165.93 59.9474 164.771C59.9474 163.612 59.9184 162.51 59.8603 161.467C59.8021 160.945 59.7729 160.481 59.7729 160.076C59.7729 159.612 59.7439 159.148 59.6858 158.684C59.6858 158.279 59.6566 157.902 59.5985 157.554C59.5985 157.148 59.5985 156.801 59.5985 156.511C59.5985 156.221 59.5695 155.96 59.5112 155.728C59.5112 155.496 59.5112 155.294 59.5112 155.12V154.685C59.453 154.685 59.424 154.714 59.424 154.772V155.12C59.424 155.294 59.3948 155.496 59.3367 155.728C59.3367 155.96 59.3367 156.221 59.3367 156.511C59.3367 156.801 59.3077 157.148 59.2495 157.554C59.2495 157.902 59.2495 158.279 59.2495 158.684C59.1914 159.148 59.1622 159.612 59.1622 160.076C59.1622 160.481 59.1332 160.945 59.075 161.467C59.0169 162.51 58.9877 163.612 58.9877 164.771C58.9877 165.93 58.9587 167.147 58.9006 168.423V170.422C58.9006 170.712 58.8714 171.031 58.8133 171.379C58.8133 171.727 58.8133 172.074 58.8133 172.422V180.508C58.8133 180.682 58.8133 180.856 58.8133 181.03C58.8714 181.204 58.9006 181.349 58.9006 181.465V184.421C58.9006 185.059 58.9006 185.696 58.9006 186.334C58.9587 186.914 58.9877 187.493 58.9877 188.073C58.9877 188.711 58.9877 189.319 58.9877 189.899C59.0459 190.42 59.075 190.913 59.075 191.377C59.1332 191.899 59.1622 192.391 59.1622 192.855C59.1622 193.319 59.1914 193.753 59.2495 194.159C59.2495 194.623 59.2495 195.029 59.2495 195.377C59.3077 195.724 59.3367 196.043 59.3367 196.333C59.3367 196.623 59.3367 196.884 59.3367 197.115C59.3948 197.347 59.424 197.55 59.424 197.724V198.159C59.424 198.217 59.453 198.246 59.5112 198.246V197.724C59.5112 197.55 59.5112 197.347 59.5112 197.115C59.5695 196.884 59.5985 196.623 59.5985 196.333C59.5985 196.043 59.5985 195.724 59.5985 195.377C59.6566 195.029 59.6858 194.623 59.6858 194.159C59.7439 193.753 59.7729 193.319 59.7729 192.855C59.7729 192.391 59.8021 191.899 59.8603 191.377C59.8603 190.913 59.8603 190.42 59.8603 189.899C59.9184 189.319 59.9474 188.711 59.9474 188.073C59.9474 187.493 59.9474 186.914 59.9474 186.334C60.0056 185.696 60.0347 185.059 60.0347 184.421V182.508C60.0347 182.045 60.0637 181.697 60.1219 181.465V172.422ZM79.1406 185.03C79.0824 184.45 79.0534 183.928 79.0534 183.465C79.0534 182.943 79.0243 182.45 78.9661 181.987C78.908 181.117 78.8206 180.393 78.7043 179.813C78.7043 179.697 78.6753 179.581 78.6172 179.465C78.6172 179.349 78.6172 179.262 78.6172 179.204V178.943L78.5299 179.03V179.204C78.5299 179.262 78.5009 179.349 78.4427 179.465C78.4427 179.581 78.4427 179.697 78.4427 179.813C78.3264 180.393 78.2391 181.117 78.1809 181.987C78.1228 182.45 78.0937 182.943 78.0937 183.465C78.0937 183.928 78.0646 184.45 78.0064 185.03V185.899C78.0064 186.073 77.9774 186.247 77.9193 186.421C77.9193 186.537 77.9193 186.653 77.9193 186.769V190.42C77.9193 190.594 77.9483 190.739 78.0064 190.855V192.159C78.0064 192.449 78.0064 192.71 78.0064 192.942C78.0646 193.174 78.0937 193.435 78.0937 193.724C78.0937 194.014 78.0937 194.275 78.0937 194.507C78.1519 194.739 78.1809 194.971 78.1809 195.203C78.2391 195.434 78.2682 195.666 78.2682 195.898C78.2682 196.072 78.2972 196.246 78.3554 196.42C78.3554 196.594 78.3554 196.768 78.3554 196.942C78.4135 197.115 78.4427 197.26 78.4427 197.376C78.4427 197.492 78.4427 197.608 78.4427 197.724C78.5009 197.84 78.5299 197.927 78.5299 197.985V198.159C78.5299 198.217 78.559 198.246 78.6172 198.246V197.985C78.6172 197.927 78.6172 197.84 78.6172 197.724C78.6753 197.608 78.7043 197.492 78.7043 197.376C78.7043 197.26 78.7043 197.115 78.7043 196.942C78.7625 196.768 78.7916 196.594 78.7916 196.42C78.8498 196.246 78.8788 196.072 78.8788 195.898C78.8788 195.666 78.908 195.434 78.9661 195.203C78.9661 194.971 78.9661 194.739 78.9661 194.507C79.0243 194.275 79.0534 194.014 79.0534 193.724C79.0534 193.435 79.0534 193.174 79.0534 192.942C79.1116 192.71 79.1406 192.449 79.1406 192.159V191.29C79.1406 191.058 79.1698 190.913 79.2279 190.855V186.769C79.2279 186.653 79.1988 186.537 79.1406 186.421C79.1406 186.247 79.1406 186.073 79.1406 185.899V185.03Z" fill="#F4EDE8"/>
<path d="M114.324 176.596C115.312 176.596 116.127 176.799 116.766 177.204C116.127 177.61 115.574 178.161 115.109 178.856C114.702 179.552 114.44 180.306 114.324 181.117V194.246C114.265 196.101 113.858 197.84 113.102 199.463C112.404 201.028 111.445 202.419 110.223 203.637C109.002 204.796 107.577 205.723 105.948 206.419C104.32 207.114 102.575 207.462 100.714 207.462C98.8527 207.462 97.1078 207.114 95.4794 206.419C93.8508 205.723 92.4258 204.796 91.2045 203.637C89.9832 202.419 88.9943 201.028 88.2383 199.463C87.5404 197.84 87.1623 196.101 87.1041 194.246V181.117C86.9296 179.32 86.1154 178.016 84.6613 177.204C85.3012 176.799 86.1154 176.596 87.1041 176.596V159.815C87.1623 158.018 87.5404 156.308 88.2383 154.685C88.9943 153.062 89.9832 151.671 91.2045 150.511C92.4258 149.294 93.8508 148.338 95.4794 147.642C97.1078 146.947 98.8527 146.599 100.714 146.599C102.575 146.599 104.32 146.947 105.948 147.642C107.577 148.338 109.002 149.294 110.223 150.511C111.445 151.671 112.404 153.062 113.102 154.685C113.858 156.308 114.265 158.018 114.324 159.815V176.596ZM91.8152 173.466C91.8152 173.176 91.7861 172.915 91.7279 172.683C91.7279 172.393 91.7279 172.103 91.7279 171.814V170.162C91.6698 169.06 91.6408 168.017 91.6408 167.031C91.6408 166.046 91.6116 165.119 91.5534 164.249C91.4953 163.843 91.4663 163.438 91.4663 163.032C91.4663 162.626 91.4371 162.249 91.379 161.902C91.379 161.554 91.35 161.235 91.2918 160.945C91.2918 160.655 91.2918 160.394 91.2918 160.163C91.2918 159.873 91.2627 159.641 91.2045 159.467C91.2045 159.235 91.2045 159.061 91.2045 158.945V158.511C91.1463 158.511 91.1172 158.54 91.1172 158.598V158.945C91.1172 159.061 91.0882 159.235 91.03 159.467C91.03 159.641 91.03 159.873 91.03 160.163C91.03 160.394 91.0009 160.655 90.9427 160.945C90.9427 161.235 90.9427 161.554 90.9427 161.902C90.8845 162.249 90.8555 162.626 90.8555 163.032C90.8555 163.438 90.8264 163.843 90.7682 164.249C90.7101 165.119 90.6811 166.046 90.6811 167.031C90.6811 168.017 90.6519 169.06 90.5938 170.162V171.814C90.5938 172.103 90.5648 172.393 90.5066 172.683C90.5066 172.915 90.5066 173.176 90.5066 173.466V180.335C90.5066 180.74 90.5356 181.03 90.5938 181.204V183.726C90.5938 184.247 90.5938 184.769 90.5938 185.291C90.6519 185.812 90.6811 186.305 90.6811 186.769C90.6811 187.29 90.6811 187.783 90.6811 188.247C90.7392 188.653 90.7682 189.087 90.7682 189.551C90.8264 190.015 90.8555 190.449 90.8555 190.855C90.8555 191.203 90.8845 191.551 90.9427 191.899C90.9427 192.246 90.9427 192.565 90.9427 192.855C91.0009 193.145 91.03 193.435 91.03 193.724C91.03 194.014 91.03 194.275 91.03 194.507C91.0882 194.681 91.1172 194.826 91.1172 194.942V195.203C91.1172 195.261 91.1463 195.29 91.2045 195.29V194.942C91.2045 194.826 91.2045 194.681 91.2045 194.507C91.2627 194.275 91.2918 194.014 91.2918 193.724C91.2918 193.435 91.2918 193.145 91.2918 192.855C91.35 192.565 91.379 192.246 91.379 191.899C91.4371 191.551 91.4663 191.203 91.4663 190.855C91.4663 190.449 91.4953 190.015 91.5534 189.551C91.5534 189.087 91.5534 188.653 91.5534 188.247C91.6116 187.783 91.6408 187.29 91.6408 186.769C91.6408 186.305 91.6408 185.812 91.6408 185.291C91.6989 184.769 91.7279 184.247 91.7279 183.726V181.204C91.7861 181.03 91.8152 180.74 91.8152 180.335V173.466ZM106.21 160.163C106.21 159.409 106.181 158.482 106.123 157.38C106.065 156.279 105.861 155.236 105.512 154.25C105.163 153.265 104.611 152.424 103.854 151.729C103.157 150.975 102.11 150.598 100.714 150.598C99.318 150.598 98.242 150.975 97.4859 151.729C96.788 152.424 96.2646 153.265 95.9155 154.25C95.5665 155.236 95.3631 156.279 95.3049 157.38C95.2467 158.482 95.2176 159.409 95.2176 160.163V176.596C96.2064 176.596 97.0206 176.799 97.6604 177.204C96.2064 178.016 95.3921 179.32 95.2176 181.117V193.898C95.2176 194.652 95.2467 195.579 95.3049 196.681C95.3631 197.724 95.5665 198.767 95.9155 199.811C96.2646 200.796 96.788 201.637 97.4859 202.332C98.242 203.028 99.318 203.376 100.714 203.376C102.11 203.376 103.157 203.028 103.854 202.332C104.611 201.637 105.163 200.796 105.512 199.811C105.861 198.767 106.065 197.724 106.123 196.681C106.181 195.579 106.21 194.652 106.21 193.898V181.117C106.094 179.378 105.279 178.074 103.767 177.204C104.407 176.799 105.221 176.596 106.21 176.596V160.163ZM110.921 173.466C110.921 173.176 110.921 172.915 110.921 172.683C110.921 172.393 110.892 172.103 110.834 171.814V170.162C110.834 169.06 110.805 168.017 110.747 167.031C110.747 166.046 110.718 165.119 110.659 164.249C110.601 163.843 110.572 163.438 110.572 163.032C110.572 162.626 110.543 162.249 110.485 161.902C110.485 161.554 110.456 161.235 110.398 160.945C110.398 160.655 110.398 160.394 110.398 160.163C110.398 159.873 110.369 159.641 110.31 159.467C110.31 159.235 110.31 159.061 110.31 158.945V158.511C110.252 158.511 110.223 158.54 110.223 158.598V158.945C110.223 159.061 110.223 159.235 110.223 159.467C110.223 159.641 110.194 159.873 110.136 160.163C110.136 160.394 110.107 160.655 110.049 160.945C110.049 161.235 110.049 161.554 110.049 161.902C109.991 162.249 109.961 162.626 109.961 163.032C109.961 163.438 109.932 163.843 109.874 164.249C109.816 165.119 109.787 166.046 109.787 167.031C109.787 168.017 109.758 169.06 109.7 170.162V173.466C109.642 174.045 109.612 174.625 109.612 175.205C109.612 175.784 109.612 176.364 109.612 176.944C109.612 177.523 109.612 178.103 109.612 178.683C109.612 179.204 109.642 179.755 109.7 180.335V183.726C109.7 184.247 109.7 184.769 109.7 185.291C109.758 185.812 109.787 186.305 109.787 186.769C109.787 187.29 109.787 187.783 109.787 188.247C109.845 188.653 109.874 189.087 109.874 189.551C109.932 190.015 109.961 190.449 109.961 190.855C109.961 191.203 109.991 191.551 110.049 191.899C110.049 192.246 110.049 192.565 110.049 192.855C110.107 193.145 110.136 193.435 110.136 193.724C110.194 194.014 110.223 194.275 110.223 194.507C110.223 194.681 110.223 194.826 110.223 194.942V195.203C110.223 195.261 110.252 195.29 110.31 195.29V194.942C110.31 194.826 110.31 194.681 110.31 194.507C110.369 194.275 110.398 194.014 110.398 193.724C110.398 193.435 110.398 193.145 110.398 192.855C110.456 192.565 110.485 192.246 110.485 191.899C110.543 191.551 110.572 191.203 110.572 190.855C110.572 190.449 110.601 190.015 110.659 189.551C110.659 189.087 110.659 188.653 110.659 188.247C110.718 187.783 110.747 187.29 110.747 186.769C110.747 186.305 110.747 185.812 110.747 185.291C110.805 184.769 110.834 184.247 110.834 183.726V182.074C110.834 181.958 110.834 181.813 110.834 181.639C110.892 181.465 110.921 181.32 110.921 181.204V173.466Z" fill="#F4EDE8"/>
<path d="M146.698 165.379C146.698 167.988 146.059 170.335 144.779 172.422C143.5 174.509 141.784 176.132 139.632 177.291C140.679 178.103 141.638 179.059 142.511 180.161C143.383 181.204 144.11 182.363 144.692 183.639C145.332 184.914 145.826 186.218 146.175 187.551C146.524 188.884 146.698 190.189 146.698 191.464V197.029C146.64 198.883 146.262 200.622 145.564 202.245C144.866 203.81 143.907 205.202 142.685 206.419C141.464 207.578 140.039 208.506 138.41 209.201C136.782 209.955 135.037 210.332 133.176 210.332H124.975C124.568 210.332 124.219 210.187 123.928 209.897C123.696 209.607 123.579 209.259 123.579 208.854C123.579 209.259 123.434 209.607 123.143 209.897C122.852 210.187 122.532 210.332 122.183 210.332H117.56C117.56 209.81 117.647 209.433 117.821 209.201C118.054 208.969 118.287 208.708 118.519 208.419C118.752 208.187 118.955 207.839 119.13 207.375C119.363 206.912 119.479 206.187 119.479 205.202V180.943C119.304 179.204 118.49 177.929 117.036 177.118C117.792 176.654 118.607 176.422 119.479 176.422V147.816C119.479 146.831 119.363 146.106 119.13 145.642C118.955 145.179 118.752 144.831 118.519 144.599C118.287 144.309 118.054 144.048 117.821 143.816C117.647 143.585 117.56 143.208 117.56 142.686H122.183C122.532 142.686 122.852 142.831 123.143 143.121C123.434 143.353 123.579 143.672 123.579 144.077C123.579 143.15 124.045 142.686 124.975 142.686H133.176C135.037 142.686 136.782 143.034 138.41 143.73C140.039 144.425 141.464 145.382 142.685 146.599C143.907 147.758 144.866 149.149 145.564 150.772C146.262 152.395 146.64 154.105 146.698 155.902V165.379ZM124.19 171.814C124.19 171.408 124.161 171.031 124.103 170.683C124.103 170.277 124.103 169.901 124.103 169.553V167.292C124.045 165.785 124.016 164.365 124.016 163.032C124.016 161.699 123.986 160.452 123.928 159.293C123.87 158.656 123.841 158.076 123.841 157.554C123.841 157.032 123.812 156.54 123.754 156.076C123.754 155.612 123.725 155.178 123.667 154.772C123.667 154.308 123.667 153.931 123.667 153.642C123.667 153.294 123.637 152.975 123.579 152.685C123.579 152.395 123.579 152.163 123.579 151.99V151.468C123.521 151.526 123.492 151.584 123.492 151.642V151.99C123.492 152.163 123.463 152.395 123.405 152.685C123.405 152.975 123.405 153.294 123.405 153.642C123.405 153.931 123.376 154.308 123.318 154.772C123.318 155.178 123.318 155.612 123.318 156.076C123.259 156.54 123.23 157.032 123.23 157.554C123.23 158.076 123.201 158.656 123.143 159.293C123.085 160.452 123.056 161.699 123.056 163.032C123.056 164.365 123.027 165.785 122.969 167.292V169.553C122.969 169.901 122.969 170.277 122.969 170.683C122.969 171.031 122.94 171.408 122.881 171.814V181.117C122.881 181.349 122.881 181.552 122.881 181.726C122.94 181.9 122.969 182.103 122.969 182.334V185.638C122.969 186.392 122.969 187.145 122.969 187.899C123.027 188.595 123.056 189.261 123.056 189.899C123.056 190.536 123.056 191.174 123.056 191.812C123.114 192.449 123.143 193.087 123.143 193.724C123.201 194.014 123.23 194.304 123.23 194.594C123.23 194.826 123.23 195.087 123.23 195.377C123.23 195.666 123.23 195.927 123.23 196.159C123.289 196.391 123.318 196.623 123.318 196.855C123.318 197.318 123.318 197.782 123.318 198.246C123.376 198.652 123.405 199.028 123.405 199.376C123.405 199.724 123.405 200.043 123.405 200.333C123.463 200.564 123.492 200.767 123.492 200.941V201.376C123.492 201.434 123.521 201.492 123.579 201.55V200.941C123.579 200.767 123.579 200.564 123.579 200.333C123.637 200.043 123.667 199.724 123.667 199.376C123.667 199.028 123.667 198.652 123.667 198.246C123.725 197.782 123.754 197.318 123.754 196.855C123.812 196.623 123.841 196.391 123.841 196.159C123.841 195.927 123.841 195.666 123.841 195.377C123.841 195.087 123.841 194.826 123.841 194.594C123.899 194.304 123.928 194.014 123.928 193.724C123.928 193.087 123.928 192.449 123.928 191.812C123.986 191.174 124.016 190.536 124.016 189.899C124.016 189.261 124.016 188.595 124.016 187.899C124.074 187.145 124.103 186.392 124.103 185.638V183.465C124.103 182.943 124.132 182.566 124.19 182.334V171.814ZM142.162 195.29C142.104 195.463 142.075 195.753 142.075 196.159V197.724C142.075 198.014 142.045 198.275 141.987 198.507C141.987 198.738 141.987 198.97 141.987 199.202C141.987 199.434 141.958 199.637 141.9 199.811C141.9 199.985 141.9 200.159 141.9 200.333V200.593C141.842 200.651 141.813 200.738 141.813 200.854V201.289C141.755 201.347 141.726 201.405 141.726 201.463V201.637C141.726 201.695 141.696 201.753 141.638 201.811C141.638 201.811 141.638 201.84 141.638 201.898C141.638 201.956 141.609 202.014 141.551 202.071H141.638C141.638 202.071 141.667 202.014 141.726 201.898C141.726 201.898 141.755 201.84 141.813 201.724C141.871 201.666 141.9 201.608 141.9 201.55C141.958 201.492 141.987 201.434 141.987 201.376C142.045 201.318 142.075 201.26 142.075 201.202C142.133 201.144 142.162 201.057 142.162 200.941C142.278 200.825 142.336 200.68 142.336 200.506C142.453 200.275 142.569 199.869 142.685 199.289C142.802 198.941 142.86 198.709 142.86 198.594C142.918 198.478 142.947 198.362 142.947 198.246C142.947 198.072 142.976 197.927 143.034 197.811C143.034 197.695 143.034 197.579 143.034 197.463C143.092 197.289 143.121 197.144 143.121 197.029C143.18 196.855 143.209 196.594 143.209 196.246C143.267 195.956 143.296 195.666 143.296 195.377C143.296 195.087 143.325 194.797 143.383 194.507V190.855C143.383 190.565 143.354 190.276 143.296 189.986C143.296 189.696 143.267 189.406 143.209 189.116C143.209 188.768 143.18 188.508 143.121 188.334C143.121 188.218 143.092 188.102 143.034 187.986C143.034 187.812 143.034 187.667 143.034 187.551C142.976 187.435 142.947 187.319 142.947 187.203C142.947 187.03 142.918 186.885 142.86 186.769C142.86 186.653 142.831 186.537 142.772 186.421C142.772 186.305 142.772 186.189 142.772 186.073C142.656 185.725 142.598 185.522 142.598 185.464C142.54 185.291 142.453 185.088 142.336 184.856C142.336 184.682 142.278 184.537 142.162 184.421C142.162 184.247 142.104 184.102 141.987 183.986C141.871 183.755 141.784 183.581 141.726 183.465C141.667 183.407 141.638 183.349 141.638 183.291H141.551C141.551 183.291 141.58 183.349 141.638 183.465C141.638 183.523 141.638 183.581 141.638 183.639C141.696 183.639 141.726 183.668 141.726 183.726C141.726 183.841 141.755 183.957 141.813 184.073V184.508C141.871 184.624 141.9 184.769 141.9 184.943C141.9 185.233 141.929 185.436 141.987 185.551V186.16C142.045 186.392 142.075 186.624 142.075 186.856C142.075 187.088 142.075 187.348 142.075 187.638V188.421C142.075 188.537 142.075 188.682 142.075 188.855C142.133 188.971 142.162 189.087 142.162 189.203V195.29ZM138.585 191.464C138.585 190.71 138.556 189.638 138.498 188.247C138.439 186.856 138.236 185.464 137.887 184.073C137.538 182.682 136.985 181.494 136.229 180.508C135.531 179.465 134.485 178.943 133.089 178.943H129.948C129.308 178.943 128.756 179.175 128.29 179.639C127.825 180.103 127.592 180.653 127.592 181.291V203.897C127.592 204.535 127.825 205.086 128.29 205.549C128.756 205.955 129.308 206.187 129.948 206.245H133.089C134.485 206.245 135.531 205.897 136.229 205.202C136.985 204.448 137.538 203.579 137.887 202.593C138.236 201.608 138.439 200.564 138.498 199.463C138.556 198.362 138.585 197.434 138.585 196.681V191.464ZM138.585 156.25C138.585 155.496 138.556 154.598 138.498 153.555C138.439 152.453 138.236 151.41 137.887 150.424C137.538 149.439 136.985 148.599 136.229 147.903C135.531 147.149 134.485 146.773 133.089 146.773H129.948C129.308 146.773 128.756 147.005 128.29 147.468C127.825 147.932 127.592 148.483 127.592 149.12V172.509C127.592 173.147 127.825 173.697 128.29 174.161C128.756 174.625 129.308 174.857 129.948 174.857H133.089C134.485 174.857 135.531 174.509 136.229 173.814C136.985 173.118 137.538 172.277 137.887 171.292C138.236 170.249 138.439 169.205 138.498 168.162C138.556 167.06 138.585 166.133 138.585 165.379V156.25ZM142.511 167.727C142.627 167.379 142.685 167.147 142.685 167.031C142.802 166.8 142.86 166.568 142.86 166.336C142.918 166.22 142.947 166.104 142.947 165.988C142.947 165.814 142.976 165.669 143.034 165.553C143.034 165.437 143.034 165.321 143.034 165.206C143.092 165.032 143.121 164.858 143.121 164.684C143.18 164.51 143.209 164.22 143.209 163.814C143.267 163.525 143.296 163.235 143.296 162.945C143.296 162.655 143.325 162.365 143.383 162.075V160.163C143.383 159.525 143.383 158.916 143.383 158.337C143.383 157.699 143.354 157.09 143.296 156.511C143.238 156.337 143.209 156.192 143.209 156.076C143.209 155.902 143.18 155.757 143.121 155.641C143.121 155.236 143.092 154.946 143.034 154.772C142.976 154.482 142.918 154.221 142.86 153.989C142.86 153.757 142.831 153.526 142.772 153.294C142.656 152.946 142.598 152.714 142.598 152.598C142.482 152.366 142.424 152.192 142.424 152.076C142.307 151.845 142.22 151.671 142.162 151.555C142.162 151.381 142.104 151.236 141.987 151.12C141.929 150.946 141.842 150.743 141.726 150.511L141.551 150.338V150.424C141.551 150.482 141.551 150.511 141.551 150.511C141.609 150.511 141.638 150.54 141.638 150.598C141.696 150.656 141.726 150.743 141.726 150.859C141.726 150.975 141.755 151.091 141.813 151.207V151.642C141.871 151.758 141.9 151.932 141.9 152.163C141.9 152.279 141.9 152.395 141.9 152.511C141.958 152.569 141.987 152.656 141.987 152.772V153.381C142.045 153.613 142.075 153.844 142.075 154.076C142.075 154.308 142.075 154.569 142.075 154.859V155.728C142.075 155.844 142.075 155.989 142.075 156.163C142.133 156.279 142.162 156.395 142.162 156.511V162.945C142.104 163.119 142.075 163.409 142.075 163.814V165.466C142.075 165.756 142.045 166.017 141.987 166.249C141.987 166.481 141.987 166.713 141.987 166.945C141.987 167.176 141.958 167.408 141.9 167.64C141.9 167.814 141.9 167.988 141.9 168.162C141.9 168.452 141.871 168.625 141.813 168.683V169.205C141.755 169.205 141.726 169.263 141.726 169.379V169.553C141.726 169.611 141.696 169.669 141.638 169.727C141.638 169.727 141.638 169.756 141.638 169.814C141.638 169.872 141.609 169.93 141.551 169.988L141.726 169.814C141.726 169.756 141.726 169.727 141.726 169.727C141.784 169.669 141.813 169.611 141.813 169.553C141.871 169.553 141.9 169.495 141.9 169.379C141.958 169.379 141.987 169.321 141.987 169.205C142.045 169.205 142.075 169.147 142.075 169.031C142.133 168.973 142.162 168.886 142.162 168.77C142.278 168.654 142.336 168.51 142.336 168.336C142.453 167.988 142.511 167.785 142.511 167.727Z" fill="#F4EDE8"/>
<path d="M179.697 202.245C179.929 203.231 180.192 203.955 180.482 204.419C180.773 204.883 181.063 205.26 181.355 205.549C181.645 205.839 181.907 206.1 182.139 206.332C182.372 206.564 182.547 206.941 182.664 207.462H178.039C177.633 207.462 177.254 207.317 176.905 207.027C176.614 206.738 176.44 206.39 176.381 205.984C176.44 206.39 176.353 206.738 176.12 207.027C175.888 207.317 175.596 207.462 175.247 207.462H170.624C170.508 206.941 170.537 206.564 170.711 206.332C170.886 206.1 171.06 205.868 171.235 205.636C171.409 205.346 171.555 204.97 171.671 204.506C171.787 203.984 171.758 203.202 171.584 202.158V202.071L169.664 192.246C169.548 191.667 169.228 191.174 168.704 190.768C168.181 190.305 167.6 190.073 166.959 190.073H160.94C160.3 190.073 159.718 190.305 159.196 190.768C158.671 191.174 158.352 191.667 158.236 192.246L156.404 202.071V202.158C156.229 203.202 156.171 203.984 156.229 204.506C156.345 204.97 156.491 205.346 156.665 205.636C156.897 205.868 157.072 206.1 157.189 206.332C157.362 206.564 157.421 206.941 157.362 207.462H152.739C152.332 207.462 152.012 207.317 151.78 207.027C151.547 206.738 151.46 206.39 151.518 205.984C151.46 206.39 151.285 206.738 150.994 207.027C150.704 207.317 150.355 207.462 149.947 207.462H145.324C145.382 206.941 145.527 206.564 145.76 206.332C145.992 206.1 146.254 205.839 146.545 205.549C146.836 205.26 147.127 204.883 147.417 204.419C147.708 203.955 147.97 203.231 148.203 202.245L152.129 181.117C152.245 180.306 152.158 179.552 151.867 178.856C151.576 178.161 151.111 177.61 150.471 177.204C151.401 176.799 152.245 176.596 153.001 176.596L157.711 151.816C157.887 150.83 157.916 150.106 157.8 149.642C157.683 149.12 157.538 148.743 157.362 148.512C157.189 148.222 157.013 147.961 156.84 147.729C156.665 147.497 156.637 147.12 156.753 146.599H162.597C163.47 146.715 163.906 147.207 163.906 148.077C163.906 147.671 164.022 147.352 164.255 147.12C164.546 146.831 164.866 146.657 165.215 146.599H171.147C171.263 147.12 171.235 147.497 171.06 147.729C170.944 147.961 170.798 148.222 170.624 148.512C170.449 148.743 170.303 149.12 170.187 149.642C170.07 150.106 170.1 150.83 170.275 151.816L174.898 176.596C175.364 176.596 175.799 176.654 176.207 176.77C176.614 176.886 177.022 177.031 177.428 177.204C176.148 178.016 175.596 179.32 175.771 181.117L179.697 202.245ZM158.758 171.118C158.875 170.77 158.933 170.451 158.933 170.162C158.991 169.814 159.05 169.495 159.107 169.205C159.399 167.872 159.631 166.626 159.805 165.466C159.98 164.249 160.154 163.148 160.329 162.162C160.446 161.699 160.503 161.235 160.503 160.771C160.562 160.308 160.619 159.844 160.678 159.38C160.736 158.974 160.795 158.598 160.852 158.25C160.911 157.902 160.968 157.583 161.027 157.293C161.085 157.004 161.114 156.743 161.114 156.511C161.114 156.221 161.144 155.989 161.201 155.815V155.467L161.114 155.815C161.057 155.989 160.998 156.192 160.94 156.424C160.881 156.656 160.824 156.917 160.765 157.206C160.649 157.496 160.562 157.844 160.503 158.25C160.446 158.598 160.359 158.945 160.242 159.293C160.126 159.757 160.01 160.221 159.893 160.684C159.835 161.148 159.748 161.612 159.631 162.075C159.34 163.061 159.05 164.133 158.758 165.293C158.526 166.394 158.265 167.611 157.973 168.944C157.973 169.292 157.944 169.611 157.887 169.901C157.828 170.191 157.741 170.509 157.625 170.857C157.567 171.205 157.508 171.553 157.451 171.901C157.392 172.19 157.335 172.509 157.276 172.857C157.102 173.495 156.927 174.161 156.753 174.857C156.637 175.552 156.52 176.248 156.404 176.944C156.288 177.581 156.142 178.248 155.967 178.943C155.85 179.639 155.734 180.306 155.618 180.943C155.56 181.117 155.531 181.291 155.531 181.465C155.531 181.581 155.501 181.726 155.444 181.9C155.328 182.363 155.269 182.711 155.269 182.943C155.095 183.523 154.978 184.16 154.92 184.856C154.804 185.493 154.688 186.131 154.571 186.769C154.455 187.406 154.368 187.986 154.31 188.508C154.135 189.841 153.961 190.942 153.786 191.812C153.67 192.275 153.582 192.739 153.524 193.203C153.466 193.667 153.408 194.13 153.35 194.594C153.234 195 153.146 195.405 153.088 195.811C153.088 196.159 153.059 196.478 153.001 196.768C152.943 197.057 152.914 197.318 152.914 197.55C152.914 197.782 152.885 197.985 152.826 198.159C152.826 198.275 152.797 198.362 152.739 198.42C152.739 198.42 152.739 198.449 152.739 198.507V198.594C152.797 198.594 152.826 198.565 152.826 198.507C152.826 198.391 152.856 198.275 152.914 198.159C152.972 198.043 153.001 197.869 153.001 197.637C153.059 197.347 153.146 197.057 153.263 196.768C153.379 196.478 153.466 196.159 153.524 195.811C153.641 195.463 153.757 195.087 153.873 194.681C153.99 194.275 154.077 193.84 154.135 193.377C154.251 192.913 154.339 192.449 154.397 191.986C154.513 191.522 154.629 191.029 154.746 190.507C154.92 189.928 155.066 189.348 155.182 188.768C155.298 188.189 155.415 187.58 155.531 186.943C155.706 186.305 155.88 185.667 156.055 185.03C156.112 184.74 156.171 184.45 156.229 184.16C156.288 183.812 156.345 183.494 156.404 183.204L156.665 182.16C156.723 181.987 156.753 181.813 156.753 181.639C156.753 181.465 156.781 181.291 156.84 181.117C156.956 180.479 157.102 179.842 157.276 179.204C157.451 178.509 157.595 177.813 157.711 177.118C157.828 176.48 157.944 175.813 158.06 175.118C158.177 174.422 158.293 173.756 158.409 173.118C158.468 172.77 158.526 172.422 158.585 172.074C158.642 171.727 158.701 171.408 158.758 171.118ZM166.175 185.986C166.814 185.928 167.308 185.696 167.657 185.291C168.065 184.827 168.209 184.276 168.093 183.639L167.57 181.117C167.338 180.306 166.93 179.552 166.348 178.856C165.826 178.161 165.185 177.61 164.43 177.204C165.128 176.799 165.883 176.596 166.697 176.596L163.906 161.728L161.114 176.596C161.871 176.596 162.656 176.799 163.47 177.204C162.656 177.61 161.958 178.161 161.376 178.856C160.852 179.552 160.503 180.306 160.329 181.117L159.893 183.639C159.777 184.276 159.893 184.827 160.242 185.291C160.591 185.696 161.057 185.928 161.638 185.986H166.175ZM174.985 198.159C174.985 198.275 174.985 198.362 174.985 198.42C175.044 198.42 175.074 198.449 175.074 198.507V198.159C175.015 197.985 174.985 197.782 174.985 197.55C174.985 197.318 174.957 197.057 174.898 196.768C174.841 196.478 174.782 196.159 174.725 195.811C174.725 195.405 174.666 195 174.549 194.594C174.492 194.13 174.433 193.667 174.376 193.203C174.317 192.739 174.23 192.275 174.114 191.812C173.938 190.942 173.765 189.841 173.589 188.508C173.473 187.986 173.357 187.406 173.24 186.769C173.183 186.131 173.096 185.493 172.98 184.856C172.864 184.508 172.775 184.189 172.718 183.899C172.718 183.61 172.659 183.291 172.543 182.943C172.543 182.711 172.485 182.363 172.369 181.9C172.369 181.726 172.339 181.581 172.282 181.465C172.282 181.291 172.282 181.117 172.282 180.943C172.166 180.306 172.02 179.639 171.845 178.943C171.728 178.248 171.612 177.581 171.496 176.944C171.379 176.248 171.235 175.552 171.06 174.857C170.944 174.161 170.798 173.495 170.624 172.857C170.565 172.509 170.508 172.19 170.449 171.901C170.391 171.553 170.333 171.205 170.275 170.857C170.159 170.509 170.07 170.191 170.013 169.901C169.954 169.611 169.897 169.292 169.838 168.944C169.548 167.611 169.256 166.394 168.966 165.293C168.734 164.133 168.53 163.061 168.355 162.075C168.239 161.612 168.123 161.148 168.006 160.684C167.89 160.221 167.774 159.757 167.657 159.293C167.541 158.945 167.425 158.598 167.308 158.25C167.251 157.844 167.163 157.496 167.046 157.206C166.989 156.917 166.93 156.656 166.872 156.424C166.814 156.192 166.756 155.989 166.697 155.815L166.61 155.467V155.815C166.669 156.105 166.756 156.598 166.872 157.293C166.872 157.583 166.902 157.902 166.959 158.25C167.018 158.598 167.076 158.974 167.135 159.38C167.192 159.844 167.251 160.308 167.308 160.771C167.367 161.235 167.454 161.699 167.57 162.162C167.744 163.148 167.919 164.249 168.093 165.466C168.268 166.626 168.471 167.872 168.704 169.205C168.763 169.495 168.791 169.814 168.791 170.162C168.85 170.451 168.937 170.77 169.053 171.118C169.112 171.408 169.169 171.727 169.228 172.074C169.286 172.422 169.345 172.77 169.402 173.118C169.518 173.756 169.635 174.422 169.751 175.118C169.926 175.813 170.07 176.48 170.187 177.118C170.303 177.813 170.449 178.509 170.624 179.204C170.798 179.842 170.944 180.479 171.06 181.117C171.119 181.291 171.147 181.465 171.147 181.639C171.147 181.813 171.176 181.987 171.235 182.16L171.496 183.204C171.555 183.494 171.612 183.812 171.671 184.16C171.728 184.45 171.787 184.74 171.845 185.03C172.02 185.667 172.166 186.305 172.282 186.943C172.398 187.58 172.515 188.189 172.631 188.768C172.747 189.348 172.864 189.928 172.98 190.507C173.154 191.029 173.299 191.522 173.416 191.986C173.532 192.449 173.648 192.913 173.765 193.377C173.881 193.84 173.997 194.275 174.114 194.681C174.287 195.492 174.463 196.188 174.636 196.768C174.753 197.057 174.812 197.347 174.812 197.637C174.869 197.869 174.928 198.043 174.985 198.159Z" fill="#F4EDE8"/>
<path d="M216.301 211.114C216.941 211.23 217.377 211.433 217.61 211.723C217.9 212.013 218.105 212.302 218.221 212.592C218.337 212.94 218.395 213.317 218.395 213.723C216.534 213.723 214.789 213.491 213.16 213.027C211.532 212.563 210.077 211.81 208.798 210.766C207.577 209.723 206.588 208.361 205.832 206.68C205.134 204.999 204.786 202.941 204.786 200.506V188.595C204.786 187.841 204.756 186.914 204.697 185.812C204.64 184.711 204.437 183.668 204.088 182.682C203.739 181.697 203.185 180.856 202.43 180.161C201.732 179.407 200.685 179.03 199.289 179.03H195.711C195.189 179.146 194.723 179.436 194.315 179.9C193.967 180.306 193.793 180.798 193.793 181.378V202.158C193.793 203.202 193.88 203.984 194.055 204.506C194.288 204.97 194.52 205.346 194.753 205.636C194.985 205.868 195.189 206.1 195.362 206.332C195.595 206.564 195.711 206.941 195.711 207.462H191.088C190.739 207.462 190.42 207.317 190.128 207.027C189.838 206.738 189.692 206.419 189.692 206.071C189.692 206.419 189.546 206.738 189.256 207.027C189.024 207.317 188.703 207.462 188.296 207.462H183.76C183.76 206.941 183.847 206.564 184.021 206.332C184.253 206.1 184.487 205.868 184.72 205.636C184.953 205.346 185.156 204.97 185.33 204.506C185.562 204.042 185.679 203.318 185.679 202.332V181.117C185.505 179.32 184.691 178.016 183.236 177.204C183.876 176.799 184.691 176.596 185.679 176.596V151.729C185.679 150.743 185.562 150.019 185.33 149.555C185.156 149.091 184.953 148.743 184.72 148.512C184.487 148.222 184.253 147.961 184.021 147.729C183.847 147.497 183.76 147.12 183.76 146.599H188.383C188.732 146.599 189.052 146.744 189.343 147.034C189.633 147.265 189.779 147.584 189.779 147.99C189.779 147.062 190.244 146.599 191.175 146.599H199.376C201.237 146.599 202.982 146.947 204.61 147.642C206.239 148.338 207.664 149.294 208.886 150.511C210.107 151.671 211.067 153.062 211.765 154.685C212.462 156.308 212.841 158.018 212.898 159.815V165.466C212.898 167.901 212.317 170.133 211.153 172.162C209.99 174.19 208.421 175.813 206.442 177.031C208.421 178.19 209.99 179.813 211.153 181.9C212.317 183.928 212.898 186.16 212.898 188.595V200.159C212.898 201.376 212.898 202.622 212.898 203.897C212.957 205.115 213.101 206.245 213.334 207.288C213.567 208.274 213.916 209.114 214.381 209.81C214.846 210.506 215.487 210.94 216.301 211.114ZM208.362 163.988C208.303 164.104 208.275 164.249 208.275 164.423V166.423C208.216 166.655 208.187 166.887 208.187 167.118C208.187 167.292 208.187 167.466 208.187 167.64C208.187 167.756 208.159 167.843 208.1 167.901C208.1 167.959 208.1 168.046 208.1 168.162V168.683C208.042 168.799 208.013 168.944 208.013 169.118C208.013 169.234 207.983 169.35 207.926 169.466C207.926 169.582 207.897 169.669 207.838 169.727V169.901L207.751 170.075C207.751 170.075 207.81 170.046 207.926 169.988V169.901L208.013 169.814C208.07 169.756 208.1 169.727 208.1 169.727C208.1 169.669 208.129 169.611 208.187 169.553C208.246 169.437 208.303 169.321 208.362 169.205C208.419 169.031 208.478 168.886 208.537 168.77C208.595 168.654 208.624 168.597 208.624 168.597C208.624 168.539 208.652 168.452 208.711 168.336C208.77 168.22 208.798 168.133 208.798 168.075C208.798 167.959 208.827 167.843 208.886 167.727C208.943 167.611 208.973 167.524 208.973 167.466C208.973 167.408 209.002 167.321 209.06 167.205C209.06 167.089 209.06 167.002 209.06 166.945C209.119 166.829 209.147 166.713 209.147 166.597C209.206 166.365 209.235 166.133 209.235 165.901C209.292 165.669 209.351 165.437 209.409 165.206C209.468 165.032 209.496 164.771 209.496 164.423C209.496 164.307 209.496 164.191 209.496 164.075C209.555 163.959 209.584 163.843 209.584 163.727V160.684C209.584 160.336 209.555 160.076 209.496 159.902V159.554C209.496 159.438 209.468 159.38 209.409 159.38C209.409 159.322 209.409 159.235 209.409 159.119C209.409 158.829 209.351 158.395 209.235 157.815C209.176 157.699 209.147 157.583 209.147 157.467C209.147 157.351 209.119 157.235 209.06 157.119C209.06 157.061 209.03 157.032 208.973 157.032C208.973 156.975 208.973 156.917 208.973 156.859C208.973 156.801 208.943 156.772 208.886 156.772C208.886 156.714 208.886 156.656 208.886 156.598C208.827 156.482 208.798 156.395 208.798 156.337C208.798 156.279 208.77 156.192 208.711 156.076C208.652 155.96 208.624 155.873 208.624 155.815C208.624 155.757 208.595 155.67 208.537 155.554C208.478 155.496 208.449 155.438 208.449 155.38C208.449 155.323 208.419 155.265 208.362 155.207C208.246 154.975 208.187 154.859 208.187 154.859C208.129 154.801 208.1 154.772 208.1 154.772C208.1 154.714 208.07 154.656 208.013 154.598C207.954 154.54 207.926 154.482 207.926 154.424C207.867 154.366 207.838 154.308 207.838 154.25H207.751C207.751 154.25 207.78 154.308 207.838 154.424V154.598C207.897 154.656 207.926 154.772 207.926 154.946C207.926 155.004 207.926 155.062 207.926 155.12C207.983 155.12 208.013 155.178 208.013 155.294C208.013 155.467 208.042 155.612 208.1 155.728V156.163C208.1 156.279 208.1 156.366 208.1 156.424C208.159 156.482 208.187 156.569 208.187 156.685C208.187 157.206 208.216 157.612 208.275 157.902V159.293C208.332 159.583 208.362 160.047 208.362 160.684V163.988ZM190.39 172.944C190.39 172.654 190.361 172.335 190.303 171.987C190.303 171.64 190.303 171.292 190.303 170.944V169.031C190.244 167.756 190.215 166.539 190.215 165.379C190.215 164.22 190.187 163.119 190.128 162.075C190.071 161.612 190.041 161.148 190.041 160.684C190.041 160.221 190.012 159.786 189.954 159.38C189.954 158.916 189.925 158.511 189.866 158.163C189.866 157.815 189.866 157.496 189.866 157.206C189.866 156.917 189.838 156.656 189.779 156.424C189.779 156.192 189.779 155.989 189.779 155.815V155.38C189.722 155.38 189.692 155.409 189.692 155.467V155.815C189.692 155.989 189.663 156.192 189.605 156.424C189.605 156.656 189.605 156.917 189.605 157.206C189.605 157.496 189.576 157.815 189.517 158.163C189.517 158.511 189.517 158.916 189.517 159.38C189.46 159.786 189.43 160.221 189.43 160.684C189.43 161.148 189.401 161.612 189.343 162.075C189.284 163.119 189.256 164.22 189.256 165.379C189.256 166.539 189.227 167.756 189.168 169.031V170.944C189.168 171.292 189.14 171.64 189.081 171.987C189.081 172.335 189.081 172.654 189.081 172.944V181.03C189.081 181.494 189.111 181.842 189.168 182.074V184.943C189.168 185.58 189.168 186.218 189.168 186.856C189.227 187.435 189.256 188.015 189.256 188.595C189.256 189.232 189.256 189.812 189.256 190.334C189.314 190.855 189.343 191.377 189.343 191.899C189.401 192.42 189.43 192.913 189.43 193.377C189.43 193.782 189.46 194.217 189.517 194.681C189.517 195.087 189.517 195.463 189.517 195.811C189.576 196.159 189.605 196.478 189.605 196.768C189.605 197.057 189.605 197.347 189.605 197.637C189.663 197.869 189.692 198.043 189.692 198.159V198.594C189.692 198.652 189.722 198.681 189.779 198.681V198.159C189.779 198.043 189.779 197.869 189.779 197.637C189.838 197.347 189.866 197.057 189.866 196.768C189.866 196.478 189.866 196.159 189.866 195.811C189.925 195.463 189.954 195.087 189.954 194.681C190.012 194.217 190.041 193.782 190.041 193.377C190.041 192.913 190.071 192.42 190.128 191.899C190.128 191.377 190.128 190.855 190.128 190.334C190.187 189.812 190.215 189.232 190.215 188.595C190.215 188.015 190.215 187.435 190.215 186.856C190.274 186.218 190.303 185.58 190.303 184.943V183.03C190.303 182.566 190.331 182.247 190.39 182.074V172.944ZM204.786 160.163C204.786 159.409 204.756 158.482 204.697 157.38C204.64 156.279 204.437 155.236 204.088 154.25C203.739 153.265 203.185 152.424 202.43 151.729C201.732 150.975 200.685 150.598 199.289 150.598H196.149C195.508 150.656 194.956 150.917 194.491 151.381C194.025 151.845 193.793 152.395 193.793 153.033V172.596C193.793 173.234 194.025 173.785 194.491 174.248C194.956 174.712 195.508 174.944 196.149 174.944H199.289C200.685 174.944 201.732 174.596 202.43 173.9C203.185 173.205 203.739 172.364 204.088 171.379C204.437 170.335 204.64 169.292 204.697 168.249C204.756 167.147 204.786 166.22 204.786 165.466V160.163ZM210.631 207.81C210.631 207.81 210.601 207.781 210.542 207.723L210.456 207.636C210.398 207.52 210.339 207.404 210.282 207.288C210.282 207.172 210.223 207.056 210.107 206.941C210.049 206.767 209.99 206.593 209.933 206.419C209.874 206.187 209.817 205.926 209.758 205.636C209.641 205.057 209.584 204.506 209.584 203.984C209.525 203.694 209.496 203.405 209.496 203.115C209.496 202.767 209.496 202.39 209.496 201.985V197.376C209.496 196.971 209.496 196.565 209.496 196.159C209.496 195.753 209.525 195.319 209.584 194.855C209.584 194.449 209.584 194.043 209.584 193.638C209.584 193.232 209.555 192.826 209.496 192.42V191.203C209.496 190.623 209.468 190.218 209.409 189.986C209.409 189.58 209.379 189.203 209.322 188.855C209.322 188.45 209.292 188.073 209.235 187.725C209.119 186.914 209.002 186.218 208.886 185.638C208.827 185.349 208.77 185.088 208.711 184.856C208.652 184.566 208.565 184.276 208.449 183.986C208.332 183.697 208.246 183.465 208.187 183.291C208.129 183.117 208.042 182.943 207.926 182.769C207.81 182.595 207.721 182.45 207.664 182.334C207.605 182.218 207.548 182.103 207.489 181.987C207.431 181.987 207.372 181.958 207.315 181.9C207.256 181.9 207.228 181.871 207.228 181.813L207.315 181.9C207.315 181.958 207.344 182.016 207.402 182.074C207.402 182.131 207.402 182.189 207.402 182.247C207.461 182.247 207.489 182.305 207.489 182.421C207.548 182.479 207.577 182.537 207.577 182.595C207.577 182.653 207.605 182.74 207.664 182.856C207.721 183.088 207.81 183.494 207.926 184.073C207.983 184.363 208.013 184.653 208.013 184.943C208.07 185.233 208.129 185.522 208.187 185.812C208.187 186.102 208.187 186.421 208.187 186.769C208.246 187.059 208.275 187.406 208.275 187.812V198.594C208.275 198.825 208.275 199.028 208.275 199.202C208.332 199.376 208.362 199.579 208.362 199.811C208.362 200.217 208.362 200.622 208.362 201.028C208.419 201.376 208.478 201.724 208.537 202.071C208.595 202.419 208.624 202.767 208.624 203.115C208.681 203.463 208.74 203.781 208.798 204.071C208.914 204.419 209.002 204.738 209.06 205.028C209.119 205.26 209.206 205.52 209.322 205.81C209.438 206.1 209.525 206.332 209.584 206.506C209.641 206.68 209.728 206.854 209.845 207.027L210.02 207.201C210.077 207.259 210.107 207.317 210.107 207.375C210.107 207.375 210.136 207.404 210.193 207.462L210.542 207.81H210.631Z" fill="#F4EDE8"/>
<path d="M242.46 165.466C242.46 167.901 241.878 170.133 240.715 172.162C239.552 174.19 237.981 175.813 236.003 177.031C237.981 178.19 239.552 179.813 240.715 181.9C241.878 183.928 242.46 186.16 242.46 188.595V194.246C242.402 196.101 242.024 197.84 241.326 199.463C240.628 201.028 239.668 202.419 238.446 203.637C237.225 204.796 235.8 205.723 234.172 206.419C232.543 207.114 230.799 207.462 228.938 207.462H220.65C220.301 207.462 219.981 207.317 219.69 207.027C219.4 206.738 219.254 206.419 219.254 206.071C219.254 206.419 219.108 206.738 218.818 207.027C218.585 207.317 218.264 207.462 217.858 207.462H213.322C213.322 206.941 213.408 206.564 213.582 206.332C213.815 206.1 214.047 205.868 214.28 205.636C214.513 205.346 214.717 204.97 214.891 204.506C215.124 204.042 215.24 203.318 215.24 202.332V181.117C215.066 179.32 214.252 178.016 212.797 177.204C213.438 176.799 214.252 176.596 215.24 176.596V151.729C215.24 150.743 215.124 150.019 214.891 149.555C214.717 149.091 214.513 148.743 214.28 148.512C214.047 148.222 213.815 147.961 213.582 147.729C213.408 147.497 213.322 147.12 213.322 146.599H217.945C218.294 146.599 218.613 146.744 218.905 147.034C219.195 147.265 219.341 147.584 219.341 147.99C219.341 147.062 219.806 146.599 220.736 146.599H228.938C230.799 146.599 232.543 146.947 234.172 147.642C235.8 148.338 237.225 149.294 238.446 150.511C239.668 151.671 240.628 153.062 241.326 154.685C242.024 156.308 242.402 158.018 242.46 159.815V165.466ZM219.952 172.944C219.952 172.654 219.922 172.335 219.865 171.987C219.865 171.64 219.865 171.292 219.865 170.944V169.031C219.806 167.756 219.776 166.539 219.776 165.379C219.776 164.22 219.749 163.119 219.69 162.075C219.632 161.612 219.603 161.148 219.603 160.684C219.603 160.221 219.573 159.786 219.516 159.38C219.516 158.916 219.486 158.511 219.427 158.163C219.427 157.815 219.427 157.496 219.427 157.206C219.427 156.917 219.4 156.656 219.341 156.424C219.341 156.192 219.341 155.989 219.341 155.815V155.38C219.283 155.38 219.254 155.409 219.254 155.467V155.815C219.254 155.989 219.224 156.192 219.167 156.424C219.167 156.656 219.167 156.917 219.167 157.206C219.167 157.496 219.137 157.815 219.079 158.163C219.079 158.511 219.079 158.916 219.079 159.38C219.021 159.786 218.992 160.221 218.992 160.684C218.992 161.148 218.962 161.612 218.905 162.075C218.846 163.119 218.818 164.22 218.818 165.379C218.818 166.539 218.789 167.756 218.73 169.031V170.944C218.73 171.292 218.702 171.64 218.643 171.987C218.643 172.335 218.643 172.654 218.643 172.944V181.03C218.643 181.494 218.672 181.842 218.73 182.074V184.943C218.73 185.58 218.73 186.218 218.73 186.856C218.789 187.435 218.818 188.015 218.818 188.595C218.818 189.232 218.818 189.812 218.818 190.334C218.875 190.855 218.905 191.377 218.905 191.899C218.962 192.42 218.992 192.913 218.992 193.377C218.992 193.782 219.021 194.217 219.079 194.681C219.079 195.087 219.079 195.463 219.079 195.811C219.137 196.159 219.167 196.478 219.167 196.768C219.167 197.057 219.167 197.347 219.167 197.637C219.224 197.869 219.254 198.043 219.254 198.159V198.594C219.254 198.652 219.283 198.681 219.341 198.681V198.159C219.341 198.043 219.341 197.869 219.341 197.637C219.4 197.347 219.427 197.057 219.427 196.768C219.427 196.478 219.427 196.159 219.427 195.811C219.486 195.463 219.516 195.087 219.516 194.681C219.573 194.217 219.603 193.782 219.603 193.377C219.603 192.913 219.632 192.42 219.69 191.899C219.69 191.377 219.69 190.855 219.69 190.334C219.749 189.812 219.776 189.232 219.776 188.595C219.776 188.015 219.776 187.435 219.776 186.856C219.835 186.218 219.865 185.58 219.865 184.943V183.03C219.865 182.566 219.893 182.247 219.952 182.074V172.944ZM237.923 193.116C237.864 193.232 237.836 193.377 237.836 193.551V195.55C237.778 195.782 237.748 196.014 237.748 196.246C237.748 196.42 237.748 196.594 237.748 196.768C237.748 196.884 237.72 196.971 237.661 197.029C237.661 197.086 237.661 197.173 237.661 197.289V197.811C237.604 197.927 237.574 198.072 237.574 198.246C237.574 198.362 237.545 198.478 237.488 198.594C237.488 198.709 237.458 198.796 237.399 198.854V199.028L237.312 199.202C237.312 199.202 237.371 199.173 237.488 199.115V199.028L237.574 198.941C237.632 198.883 237.661 198.854 237.661 198.854C237.661 198.796 237.691 198.738 237.748 198.681C237.807 198.565 237.864 198.449 237.923 198.333C237.981 198.159 238.04 198.014 238.097 197.898C238.156 197.782 238.185 197.724 238.185 197.724C238.185 197.666 238.213 197.579 238.272 197.463C238.33 197.347 238.359 197.26 238.359 197.202C238.359 197.144 238.389 197.057 238.446 196.942C238.505 196.826 238.534 196.739 238.534 196.681C238.534 196.565 238.562 196.449 238.621 196.333C238.621 196.217 238.621 196.13 238.621 196.072C238.679 195.956 238.708 195.84 238.708 195.724C238.767 195.492 238.795 195.261 238.795 195.029C238.854 194.797 238.911 194.565 238.97 194.333C239.028 194.159 239.057 193.898 239.057 193.551C239.057 193.435 239.057 193.319 239.057 193.203C239.116 193.087 239.144 192.971 239.144 192.855V189.812C239.144 189.464 239.116 189.203 239.057 189.029V188.682C239.057 188.566 239.028 188.508 238.97 188.508C238.97 188.45 238.97 188.392 238.97 188.334C238.97 188.044 238.941 187.812 238.883 187.638C238.883 187.406 238.854 187.174 238.795 186.943C238.738 186.827 238.708 186.711 238.708 186.595C238.708 186.479 238.679 186.363 238.621 186.247C238.621 186.189 238.592 186.16 238.534 186.16C238.534 186.102 238.534 186.044 238.534 185.986C238.534 185.928 238.505 185.899 238.446 185.899C238.446 185.841 238.446 185.783 238.446 185.725C238.389 185.609 238.359 185.522 238.359 185.464C238.359 185.407 238.33 185.32 238.272 185.204C238.213 185.088 238.185 185.001 238.185 184.943C238.185 184.885 238.156 184.798 238.097 184.682C238.04 184.624 238.01 184.566 238.01 184.508C238.01 184.45 237.981 184.392 237.923 184.334C237.807 184.102 237.748 183.986 237.748 183.986C237.691 183.928 237.661 183.899 237.661 183.899C237.661 183.841 237.632 183.783 237.574 183.726C237.515 183.668 237.488 183.61 237.488 183.552L237.312 183.378C237.312 183.378 237.342 183.436 237.399 183.552V183.726C237.458 183.783 237.488 183.899 237.488 184.073C237.488 184.131 237.488 184.189 237.488 184.247C237.545 184.247 237.574 184.305 237.574 184.421C237.574 184.595 237.604 184.74 237.661 184.856V185.291C237.661 185.407 237.661 185.493 237.661 185.551C237.72 185.609 237.748 185.696 237.748 185.812C237.748 186.334 237.778 186.74 237.836 187.03V188.421C237.894 188.711 237.923 189.174 237.923 189.812V193.116ZM234.347 188.595C234.347 187.841 234.318 186.914 234.259 185.812C234.201 184.711 233.998 183.668 233.648 182.682C233.299 181.697 232.746 180.856 231.991 180.161C231.293 179.407 230.246 179.03 228.851 179.03H225.709C225.07 179.088 224.517 179.349 224.052 179.813C223.587 180.277 223.354 180.827 223.354 181.465V201.028C223.354 201.666 223.587 202.216 224.052 202.68C224.517 203.144 225.07 203.376 225.709 203.376H228.851C230.246 203.376 231.293 203.028 231.991 202.332C232.746 201.637 233.299 200.796 233.648 199.811C233.998 198.767 234.201 197.724 234.259 196.681C234.318 195.579 234.347 194.652 234.347 193.898V188.595ZM234.347 160.163C234.347 159.409 234.318 158.482 234.259 157.38C234.201 156.279 233.998 155.236 233.648 154.25C233.299 153.265 232.746 152.424 231.991 151.729C231.293 150.975 230.246 150.598 228.851 150.598H225.709C225.07 150.656 224.517 150.917 224.052 151.381C223.587 151.845 223.354 152.395 223.354 153.033V172.596C223.354 173.234 223.587 173.785 224.052 174.248C224.517 174.712 225.07 174.944 225.709 174.944H228.851C230.246 174.944 231.293 174.596 231.991 173.9C232.746 173.205 233.299 172.364 233.648 171.379C233.998 170.335 234.201 169.292 234.259 168.249C234.318 167.147 234.347 166.22 234.347 165.466V160.163ZM238.097 168.77C238.156 168.654 238.185 168.597 238.185 168.597C238.185 168.539 238.213 168.452 238.272 168.336C238.33 168.22 238.359 168.133 238.359 168.075C238.359 167.959 238.389 167.843 238.446 167.727C238.505 167.611 238.534 167.524 238.534 167.466C238.534 167.408 238.562 167.321 238.621 167.205C238.621 167.089 238.621 167.002 238.621 166.945C238.679 166.829 238.708 166.713 238.708 166.597C238.767 166.365 238.795 166.133 238.795 165.901C238.854 165.669 238.911 165.437 238.97 165.206C239.028 165.032 239.057 164.771 239.057 164.423C239.057 164.307 239.057 164.191 239.057 164.075C239.116 163.959 239.144 163.843 239.144 163.727V160.684C239.144 160.336 239.116 160.076 239.057 159.902V159.554C239.057 159.438 239.028 159.38 238.97 159.38C238.97 159.322 238.97 159.235 238.97 159.119C238.97 158.829 238.911 158.395 238.795 157.815C238.738 157.699 238.708 157.583 238.708 157.467C238.708 157.351 238.679 157.235 238.621 157.119C238.621 157.061 238.592 157.032 238.534 157.032C238.534 156.975 238.534 156.917 238.534 156.859C238.534 156.801 238.505 156.772 238.446 156.772C238.446 156.714 238.446 156.656 238.446 156.598C238.389 156.482 238.359 156.395 238.359 156.337C238.359 156.279 238.33 156.192 238.272 156.076C238.213 155.96 238.185 155.873 238.185 155.815C238.185 155.757 238.156 155.67 238.097 155.554C238.04 155.496 238.01 155.438 238.01 155.38C238.01 155.323 237.981 155.265 237.923 155.207C237.807 154.975 237.748 154.859 237.748 154.859C237.691 154.801 237.661 154.772 237.661 154.772C237.661 154.714 237.632 154.656 237.574 154.598C237.515 154.54 237.488 154.482 237.488 154.424C237.429 154.366 237.399 154.308 237.399 154.25H237.312C237.312 154.25 237.342 154.308 237.399 154.424V154.598C237.458 154.656 237.488 154.772 237.488 154.946C237.488 155.004 237.488 155.062 237.488 155.12C237.545 155.12 237.574 155.178 237.574 155.294C237.574 155.467 237.604 155.612 237.661 155.728V156.163C237.661 156.279 237.661 156.366 237.661 156.424C237.72 156.482 237.748 156.569 237.748 156.685C237.748 157.206 237.778 157.612 237.836 157.902V159.293C237.894 159.583 237.923 160.047 237.923 160.684V163.988C237.864 164.104 237.836 164.249 237.836 164.423V166.423C237.778 166.655 237.748 166.887 237.748 167.118C237.748 167.292 237.748 167.466 237.748 167.64C237.748 167.756 237.72 167.843 237.661 167.901C237.661 167.959 237.661 168.046 237.661 168.162V168.683C237.604 168.799 237.574 168.944 237.574 169.118C237.574 169.234 237.545 169.35 237.488 169.466C237.488 169.582 237.458 169.669 237.399 169.727V169.901L237.312 170.075C237.312 170.075 237.371 170.046 237.488 169.988V169.901L237.574 169.814C237.632 169.756 237.661 169.727 237.661 169.727C237.661 169.669 237.691 169.611 237.748 169.553C237.807 169.437 237.864 169.321 237.923 169.205C237.981 169.031 238.04 168.886 238.097 168.77Z" fill="#F4EDE8"/>
<path d="M272.195 202.158C272.195 203.202 272.283 203.984 272.457 204.506C272.69 204.97 272.922 205.346 273.155 205.636C273.388 205.868 273.591 206.1 273.766 206.332C273.999 206.564 274.115 206.941 274.115 207.462H250.385C250.036 207.462 249.716 207.317 249.425 207.027C249.135 206.738 248.989 206.419 248.989 206.071C248.989 206.419 248.843 206.738 248.553 207.027C248.321 207.317 248.001 207.462 247.593 207.462H243.057C243.057 206.941 243.144 206.564 243.319 206.332C243.552 206.1 243.784 205.868 244.017 205.636C244.249 205.346 244.453 204.97 244.628 204.506C244.86 204.042 244.977 203.318 244.977 202.332V181.117C244.802 179.32 243.987 178.016 242.533 177.204C243.173 176.799 243.987 176.596 244.977 176.596V151.729C244.977 150.743 244.86 150.019 244.628 149.555C244.453 149.091 244.249 148.743 244.017 148.512C243.784 148.222 243.552 147.961 243.319 147.729C243.144 147.497 243.057 147.12 243.057 146.599H247.68C248.029 146.599 248.35 146.744 248.64 147.034C248.932 147.265 249.076 147.584 249.076 147.99C249.076 147.062 249.541 146.599 250.472 146.599H274.115C274.115 147.12 273.999 147.497 273.766 147.729C273.591 147.961 273.388 148.222 273.155 148.512C272.922 148.743 272.69 149.12 272.457 149.642C272.283 150.106 272.195 150.859 272.195 151.903V163.467C270.16 163.467 268.589 163.09 267.485 162.336C266.438 161.525 265.652 160.626 265.129 159.641C264.489 158.54 264.14 157.235 264.082 155.728V153.033C264.082 152.395 263.85 151.845 263.384 151.381C262.919 150.917 262.367 150.656 261.726 150.598H255.445C254.805 150.656 254.253 150.917 253.787 151.381C253.322 151.845 253.089 152.395 253.089 153.033V172.596C253.089 173.234 253.322 173.785 253.787 174.248C254.253 174.712 254.805 174.944 255.445 174.944H256.056C256.695 174.944 257.22 174.712 257.626 174.248C258.091 173.785 258.324 173.234 258.324 172.596V172.509C258.383 171.64 258.615 170.886 259.022 170.249C259.371 169.669 259.895 169.147 260.593 168.683C261.291 168.22 262.308 167.988 263.646 167.988V185.986C262.308 185.986 261.291 185.754 260.593 185.291C259.895 184.827 259.371 184.305 259.022 183.726C258.615 183.088 258.383 182.334 258.324 181.465C258.324 180.827 258.091 180.277 257.626 179.813C257.22 179.349 256.695 179.088 256.056 179.03H255.445C254.805 179.088 254.253 179.349 253.787 179.813C253.322 180.277 253.089 180.827 253.089 181.465V201.028C253.089 201.666 253.322 202.216 253.787 202.68C254.253 203.144 254.805 203.376 255.445 203.376H261.726C262.367 203.376 262.919 203.144 263.384 202.68C263.85 202.216 264.082 201.666 264.082 201.028V198.246C264.14 196.797 264.489 195.521 265.129 194.42C265.652 193.435 266.438 192.536 267.485 191.725C268.589 190.913 270.16 190.507 272.195 190.507V202.158ZM249.687 172.944C249.687 172.654 249.657 172.335 249.6 171.987C249.6 171.64 249.6 171.292 249.6 170.944V169.031C249.541 167.756 249.513 166.539 249.513 165.379C249.513 164.22 249.484 163.119 249.425 162.075C249.367 161.612 249.338 161.148 249.338 160.684C249.338 160.221 249.308 159.786 249.251 159.38C249.251 158.916 249.222 158.511 249.164 158.163C249.164 157.815 249.164 157.496 249.164 157.206C249.164 156.917 249.135 156.656 249.076 156.424C249.076 156.192 249.076 155.989 249.076 155.815V155.38C249.018 155.38 248.989 155.409 248.989 155.467V155.815C248.989 155.989 248.959 156.192 248.902 156.424C248.902 156.656 248.902 156.917 248.902 157.206C248.902 157.496 248.873 157.815 248.815 158.163C248.815 158.511 248.815 158.916 248.815 159.38C248.756 159.786 248.727 160.221 248.727 160.684C248.727 161.148 248.699 161.612 248.64 162.075C248.583 163.119 248.553 164.22 248.553 165.379C248.553 166.539 248.524 167.756 248.466 169.031V170.944C248.466 171.292 248.437 171.64 248.378 171.987C248.378 172.335 248.378 172.654 248.378 172.944V181.03C248.378 181.494 248.407 181.842 248.466 182.074V184.943C248.466 185.58 248.466 186.218 248.466 186.856C248.524 187.435 248.553 188.015 248.553 188.595C248.553 189.232 248.553 189.812 248.553 190.334C248.611 190.855 248.64 191.377 248.64 191.899C248.699 192.42 248.727 192.913 248.727 193.377C248.727 193.782 248.756 194.217 248.815 194.681C248.815 195.087 248.815 195.463 248.815 195.811C248.873 196.159 248.902 196.478 248.902 196.768C248.902 197.057 248.902 197.347 248.902 197.637C248.959 197.869 248.989 198.043 248.989 198.159V198.594C248.989 198.652 249.018 198.681 249.076 198.681V198.159C249.076 198.043 249.076 197.869 249.076 197.637C249.135 197.347 249.164 197.057 249.164 196.768C249.164 196.478 249.164 196.159 249.164 195.811C249.222 195.463 249.251 195.087 249.251 194.681C249.308 194.217 249.338 193.782 249.338 193.377C249.338 192.913 249.367 192.42 249.425 191.899C249.425 191.377 249.425 190.855 249.425 190.334C249.484 189.812 249.513 189.232 249.513 188.595C249.513 188.015 249.513 187.435 249.513 186.856C249.571 186.218 249.6 185.58 249.6 184.943V183.03C249.6 182.566 249.629 182.247 249.687 182.074V172.944Z" fill="#F4EDE8"/>
<path d="M307.292 211.114C307.93 211.23 308.368 211.433 308.6 211.723C308.89 212.013 309.094 212.302 309.21 212.592C309.326 212.94 309.385 213.317 309.385 213.723C307.524 213.723 305.779 213.491 304.151 213.027C302.523 212.563 301.068 211.81 299.788 210.766C298.568 209.723 297.578 208.361 296.821 206.68C296.124 204.999 295.775 202.941 295.775 200.506V188.595C295.775 187.841 295.747 186.914 295.688 185.812C295.63 184.711 295.426 183.668 295.077 182.682C294.728 181.697 294.176 180.856 293.42 180.161C292.722 179.407 291.676 179.03 290.28 179.03H286.702C286.179 179.146 285.714 179.436 285.306 179.9C284.957 180.306 284.783 180.798 284.783 181.378V202.158C284.783 203.202 284.87 203.984 285.044 204.506C285.277 204.97 285.509 205.346 285.742 205.636C285.975 205.868 286.179 206.1 286.353 206.332C286.586 206.564 286.702 206.941 286.702 207.462H282.079C281.73 207.462 281.409 207.317 281.119 207.027C280.827 206.738 280.683 206.419 280.683 206.071C280.683 206.419 280.537 206.738 280.246 207.027C280.013 207.317 279.693 207.462 279.287 207.462H274.751C274.751 206.941 274.838 206.564 275.011 206.332C275.244 206.1 275.477 205.868 275.709 205.636C275.942 205.346 276.147 204.97 276.32 204.506C276.553 204.042 276.669 203.318 276.669 202.332V181.117C276.496 179.32 275.681 178.016 274.227 177.204C274.867 176.799 275.681 176.596 276.669 176.596V151.729C276.669 150.743 276.553 150.019 276.32 149.555C276.147 149.091 275.942 148.743 275.709 148.512C275.477 148.222 275.244 147.961 275.011 147.729C274.838 147.497 274.751 147.12 274.751 146.599H279.374C279.723 146.599 280.042 146.744 280.334 147.034C280.624 147.265 280.77 147.584 280.77 147.99C280.77 147.062 281.235 146.599 282.166 146.599H290.367C292.228 146.599 293.972 146.947 295.601 147.642C297.229 148.338 298.655 149.294 299.875 150.511C301.097 151.671 302.057 153.062 302.755 154.685C303.453 156.308 303.83 158.018 303.889 159.815V165.466C303.889 167.901 303.307 170.133 302.144 172.162C300.981 174.19 299.41 175.813 297.432 177.031C299.41 178.19 300.981 179.813 302.144 181.9C303.307 183.928 303.889 186.16 303.889 188.595V200.159C303.889 201.376 303.889 202.622 303.889 203.897C303.946 205.115 304.092 206.245 304.325 207.288C304.557 208.274 304.906 209.114 305.371 209.81C305.837 210.506 306.477 210.94 307.292 211.114ZM299.353 163.988C299.294 164.104 299.266 164.249 299.266 164.423V166.423C299.207 166.655 299.177 166.887 299.177 167.118C299.177 167.292 299.177 167.466 299.177 167.64C299.177 167.756 299.149 167.843 299.09 167.901C299.09 167.959 299.09 168.046 299.09 168.162V168.683C299.033 168.799 299.004 168.944 299.004 169.118C299.004 169.234 298.974 169.35 298.917 169.466C298.917 169.582 298.887 169.669 298.828 169.727V169.901L298.741 170.075C298.741 170.075 298.8 170.046 298.917 169.988V169.901L299.004 169.814C299.061 169.756 299.09 169.727 299.09 169.727C299.09 169.669 299.12 169.611 299.177 169.553C299.236 169.437 299.294 169.321 299.353 169.205C299.41 169.031 299.469 168.886 299.526 168.77C299.585 168.654 299.615 168.597 299.615 168.597C299.615 168.539 299.643 168.452 299.701 168.336C299.759 168.22 299.788 168.133 299.788 168.075C299.788 167.959 299.818 167.843 299.875 167.727C299.934 167.611 299.964 167.524 299.964 167.466C299.964 167.408 299.991 167.321 300.05 167.205C300.05 167.089 300.05 167.002 300.05 166.945C300.108 166.829 300.137 166.713 300.137 166.597C300.196 166.365 300.224 166.133 300.224 165.901C300.283 165.669 300.34 165.437 300.399 165.206C300.457 165.032 300.486 164.771 300.486 164.423C300.486 164.307 300.486 164.191 300.486 164.075C300.545 163.959 300.573 163.843 300.573 163.727V160.684C300.573 160.336 300.545 160.076 300.486 159.902V159.554C300.486 159.438 300.457 159.38 300.399 159.38C300.399 159.322 300.399 159.235 300.399 159.119C300.399 158.829 300.34 158.395 300.224 157.815C300.167 157.699 300.137 157.583 300.137 157.467C300.137 157.351 300.108 157.235 300.05 157.119C300.05 157.061 300.021 157.032 299.964 157.032C299.964 156.975 299.964 156.917 299.964 156.859C299.964 156.801 299.934 156.772 299.875 156.772C299.875 156.714 299.875 156.656 299.875 156.598C299.818 156.482 299.788 156.395 299.788 156.337C299.788 156.279 299.759 156.192 299.701 156.076C299.643 155.96 299.615 155.873 299.615 155.815C299.615 155.757 299.585 155.67 299.526 155.554C299.469 155.496 299.439 155.438 299.439 155.38C299.439 155.323 299.41 155.265 299.353 155.207C299.236 154.975 299.177 154.859 299.177 154.859C299.12 154.801 299.09 154.772 299.09 154.772C299.09 154.714 299.061 154.656 299.004 154.598C298.945 154.54 298.917 154.482 298.917 154.424C298.858 154.366 298.828 154.308 298.828 154.25H298.741C298.741 154.25 298.771 154.308 298.828 154.424V154.598C298.887 154.656 298.917 154.772 298.917 154.946C298.917 155.004 298.917 155.062 298.917 155.12C298.974 155.12 299.004 155.178 299.004 155.294C299.004 155.467 299.033 155.612 299.09 155.728V156.163C299.09 156.279 299.09 156.366 299.09 156.424C299.149 156.482 299.177 156.569 299.177 156.685C299.177 157.206 299.207 157.612 299.266 157.902V159.293C299.323 159.583 299.353 160.047 299.353 160.684V163.988ZM281.381 172.944C281.381 172.654 281.351 172.335 281.292 171.987C281.292 171.64 281.292 171.292 281.292 170.944V169.031C281.235 167.756 281.206 166.539 281.206 165.379C281.206 164.22 281.176 163.119 281.119 162.075C281.06 161.612 281.032 161.148 281.032 160.684C281.032 160.221 281.002 159.786 280.943 159.38C280.943 158.916 280.916 158.511 280.857 158.163C280.857 157.815 280.857 157.496 280.857 157.206C280.857 156.917 280.827 156.656 280.77 156.424C280.77 156.192 280.77 155.989 280.77 155.815V155.38C280.711 155.38 280.683 155.409 280.683 155.467V155.815C280.683 155.989 280.653 156.192 280.595 156.424C280.595 156.656 280.595 156.917 280.595 157.206C280.595 157.496 280.567 157.815 280.508 158.163C280.508 158.511 280.508 158.916 280.508 159.38C280.45 159.786 280.421 160.221 280.421 160.684C280.421 161.148 280.391 161.612 280.334 162.075C280.275 163.119 280.246 164.22 280.246 165.379C280.246 166.539 280.218 167.756 280.159 169.031V170.944C280.159 171.292 280.129 171.64 280.072 171.987C280.072 172.335 280.072 172.654 280.072 172.944V181.03C280.072 181.494 280.101 181.842 280.159 182.074V184.943C280.159 185.58 280.159 186.218 280.159 186.856C280.218 187.435 280.246 188.015 280.246 188.595C280.246 189.232 280.246 189.812 280.246 190.334C280.304 190.855 280.334 191.377 280.334 191.899C280.391 192.42 280.421 192.913 280.421 193.377C280.421 193.782 280.45 194.217 280.508 194.681C280.508 195.087 280.508 195.463 280.508 195.811C280.567 196.159 280.595 196.478 280.595 196.768C280.595 197.057 280.595 197.347 280.595 197.637C280.653 197.869 280.683 198.043 280.683 198.159V198.594C280.683 198.652 280.711 198.681 280.77 198.681V198.159C280.77 198.043 280.77 197.869 280.77 197.637C280.827 197.347 280.857 197.057 280.857 196.768C280.857 196.478 280.857 196.159 280.857 195.811C280.916 195.463 280.943 195.087 280.943 194.681C281.002 194.217 281.032 193.782 281.032 193.377C281.032 192.913 281.06 192.42 281.119 191.899C281.119 191.377 281.119 190.855 281.119 190.334C281.176 189.812 281.206 189.232 281.206 188.595C281.206 188.015 281.206 187.435 281.206 186.856C281.264 186.218 281.292 185.58 281.292 184.943V183.03C281.292 182.566 281.322 182.247 281.381 182.074V172.944ZM295.775 160.163C295.775 159.409 295.747 158.482 295.688 157.38C295.63 156.279 295.426 155.236 295.077 154.25C294.728 153.265 294.176 152.424 293.42 151.729C292.722 150.975 291.676 150.598 290.28 150.598H287.138C286.499 150.656 285.947 150.917 285.481 151.381C285.016 151.845 284.783 152.395 284.783 153.033V172.596C284.783 173.234 285.016 173.785 285.481 174.248C285.947 174.712 286.499 174.944 287.138 174.944H290.28C291.676 174.944 292.722 174.596 293.42 173.9C294.176 173.205 294.728 172.364 295.077 171.379C295.426 170.335 295.63 169.292 295.688 168.249C295.747 167.147 295.775 166.22 295.775 165.466V160.163ZM301.62 207.81C301.62 207.81 301.592 207.781 301.533 207.723L301.446 207.636C301.387 207.52 301.33 207.404 301.271 207.288C301.271 207.172 301.214 207.056 301.097 206.941C301.038 206.767 300.981 206.593 300.922 206.419C300.865 206.187 300.806 205.926 300.748 205.636C300.632 205.057 300.573 204.506 300.573 203.984C300.516 203.694 300.486 203.405 300.486 203.115C300.486 202.767 300.486 202.39 300.486 201.985V197.376C300.486 196.971 300.486 196.565 300.486 196.159C300.486 195.753 300.516 195.319 300.573 194.855C300.573 194.449 300.573 194.043 300.573 193.638C300.573 193.232 300.545 192.826 300.486 192.42V191.203C300.486 190.623 300.457 190.218 300.399 189.986C300.399 189.58 300.37 189.203 300.313 188.855C300.313 188.45 300.283 188.073 300.224 187.725C300.108 186.914 299.991 186.218 299.875 185.638C299.818 185.349 299.759 185.088 299.701 184.856C299.643 184.566 299.556 184.276 299.439 183.986C299.323 183.697 299.236 183.465 299.177 183.291C299.12 183.117 299.033 182.943 298.917 182.769C298.8 182.595 298.712 182.45 298.655 182.334C298.596 182.218 298.538 182.103 298.479 181.987C298.422 181.987 298.363 181.958 298.306 181.9C298.247 181.9 298.219 181.871 298.219 181.813L298.306 181.9C298.306 181.958 298.335 182.016 298.393 182.074C298.393 182.131 298.393 182.189 298.393 182.247C298.451 182.247 298.479 182.305 298.479 182.421C298.538 182.479 298.568 182.537 298.568 182.595C298.568 182.653 298.596 182.74 298.655 182.856C298.712 183.088 298.8 183.494 298.917 184.073C298.974 184.363 299.004 184.653 299.004 184.943C299.061 185.233 299.12 185.522 299.177 185.812C299.177 186.102 299.177 186.421 299.177 186.769C299.236 187.059 299.266 187.406 299.266 187.812V198.594C299.266 198.825 299.266 199.028 299.266 199.202C299.323 199.376 299.353 199.579 299.353 199.811C299.353 200.217 299.353 200.622 299.353 201.028C299.41 201.376 299.469 201.724 299.526 202.071C299.585 202.419 299.615 202.767 299.615 203.115C299.672 203.463 299.731 203.781 299.788 204.071C299.905 204.419 299.991 204.738 300.05 205.028C300.108 205.26 300.196 205.52 300.313 205.81C300.429 206.1 300.516 206.332 300.573 206.506C300.632 206.68 300.719 206.854 300.835 207.027L301.01 207.201C301.068 207.259 301.097 207.317 301.097 207.375C301.097 207.375 301.127 207.404 301.184 207.462L301.533 207.81H301.62Z" fill="#F4EDE8"/>
<path d="M327.155 173.739C329.736 173.739 331.829 175.824 331.829 178.397C331.829 180.969 329.736 183.055 327.155 183.055C324.574 183.055 322.482 180.969 322.482 178.397C322.482 175.824 324.574 173.739 327.155 173.739Z" fill="#999591"/>
<path d="M29.5998 173.739C32.181 173.739 34.2735 175.824 34.2735 178.397C34.2735 180.969 32.181 183.055 29.5998 183.055C27.0186 183.055 24.9261 180.969 24.9261 178.397C24.9261 175.824 27.0186 173.739 29.5998 173.739Z" fill="#999591"/>
</g>
<path d="M395.477 0V356.756H398.582V0H395.477Z" fill="#FF9000"/>
<path d="M688.369 71.3409C641.558 71.3409 607.948 101.301 607.948 171.207C607.948 250.434 641.558 271.406 688.369 271.406C735.18 271.406 770.792 248.436 770.792 171.207C770.792 88.651 735.18 71.3409 688.369 71.3409ZM688.677 245.108C656.254 245.108 639.316 226.132 639.316 171.258C639.316 122.839 656.948 97.306 689.37 97.306C721.792 97.306 739.424 114.078 739.424 171.258C739.424 224.749 721.099 245.108 688.677 245.108Z" fill="#F4EDE8"/>
<path d="M580.775 216.74H561.445V159.593C561.445 156.558 560.244 153.647 558.106 151.5C555.968 149.354 553.069 148.148 550.045 148.148H545.516C544.019 148.148 542.536 148.444 541.153 149.019C539.77 149.595 538.514 150.438 537.455 151.5C536.396 152.563 535.557 153.825 534.984 155.213C534.411 156.602 534.116 158.09 534.116 159.593V216.74H479.593C478.471 216.74 477.368 216.449 476.392 215.895C475.415 215.341 474.598 214.543 474.019 213.579C473.44 212.614 473.119 211.516 473.087 210.39C473.056 209.265 473.315 208.15 473.839 207.154L531.546 97.5015C532.265 96.1344 532.701 94.6351 532.828 93.0941C532.954 91.5532 532.768 90.0025 532.281 88.5357C531.794 87.0688 531.016 85.7163 529.994 84.5597C528.972 83.4031 527.727 82.4664 526.334 81.8062L522.927 80.1912C520.282 78.9371 517.258 78.752 514.481 79.674C511.704 80.596 509.385 82.5546 508.006 85.1446L437.625 217.327C436.427 219.578 435.8 222.091 435.8 224.643V224.643C435.8 226.681 436.2 228.699 436.976 230.582C437.753 232.464 438.892 234.175 440.327 235.616C441.763 237.057 443.467 238.2 445.342 238.98C447.217 239.76 449.227 240.162 451.257 240.162H534.116V276.298C534.116 278.099 534.47 279.883 535.156 281.548C535.843 283.212 536.849 284.724 538.118 285.998C539.387 287.272 540.893 288.283 542.551 288.972C544.209 289.661 545.986 290.016 547.78 290.016H547.78C549.575 290.016 551.352 289.661 553.01 288.972C554.667 288.283 556.174 287.272 557.443 285.998C558.711 284.724 559.718 283.212 560.405 281.548C561.091 279.883 561.445 278.099 561.445 276.298V240.162H580.775C583.868 240.162 586.835 238.928 589.023 236.732C591.21 234.535 592.439 231.557 592.439 228.451V228.451C592.439 225.345 591.21 222.366 589.023 220.17C586.835 217.974 583.868 216.74 580.775 216.74V216.74Z" fill="#FF9000"/>
<path d="M938.915 216.74H919.393V159.593C919.393 156.558 918.18 153.647 916.021 151.5C913.862 149.354 910.934 148.148 907.881 148.148H903.306C901.795 148.148 900.298 148.444 898.901 149.019C897.504 149.595 896.235 150.438 895.166 151.5C894.097 152.563 893.249 153.825 892.67 155.213C892.092 156.602 891.794 158.09 891.794 159.593V216.74H836.731C835.598 216.74 834.484 216.449 833.498 215.895C832.512 215.341 831.686 214.543 831.102 213.579C830.517 212.614 830.193 211.516 830.161 210.39C830.129 209.265 830.39 208.15 830.92 207.154L889.198 97.5015C889.925 96.1344 890.365 94.6351 890.493 93.0941C890.62 91.5532 890.432 90.0025 889.941 88.5357C889.449 87.0688 888.663 85.7163 887.631 84.5597C886.598 83.4031 885.341 82.4664 883.935 81.8062L880.494 80.1912C877.823 78.9371 874.769 78.752 871.964 79.674C869.159 80.596 866.818 82.5546 865.426 85.1446L794.348 217.327C793.137 219.578 792.504 222.091 792.504 224.643V224.643C792.504 228.759 794.149 232.706 797.076 235.616C800.004 238.527 803.975 240.162 808.115 240.162H891.794V276.298C891.794 279.936 893.248 283.425 895.836 285.998C898.424 288.571 901.934 290.016 905.593 290.016V290.016C909.253 290.016 912.763 288.571 915.351 285.998C917.939 283.425 919.393 279.936 919.393 276.298V240.162H938.914C942.039 240.162 945.035 238.928 947.244 236.732C949.454 234.535 950.695 231.557 950.695 228.451V228.451C950.695 225.345 949.454 222.366 947.244 220.17C945.035 217.974 942.039 216.74 938.915 216.74Z" fill="#FF9000"/>
<path d="M585.427 210.537H566.097V153.389C566.097 151.887 565.803 150.398 565.23 149.01C564.657 147.621 563.817 146.36 562.759 145.297C561.7 144.234 560.443 143.391 559.06 142.816C557.677 142.241 556.195 141.945 554.698 141.945H550.168C547.145 141.945 544.246 143.151 542.108 145.297C539.97 147.443 538.769 150.354 538.769 153.389V210.537H484.245C483.124 210.537 482.021 210.245 481.045 209.692C480.068 209.138 479.25 208.34 478.671 207.375C478.093 206.411 477.772 205.312 477.74 204.187C477.709 203.061 477.967 201.946 478.491 200.951L536.198 91.2979C536.918 89.9308 537.354 88.4316 537.48 86.8906C537.607 85.3496 537.421 83.7989 536.934 82.3321C536.447 80.8653 535.668 79.5128 534.646 78.3562C533.624 77.1996 532.379 76.2629 530.987 75.6026L527.58 73.9876C524.935 72.7336 521.911 72.5484 519.134 73.4704C516.356 74.3924 514.038 76.351 512.659 78.941L442.278 211.123C441.079 213.374 440.452 215.887 440.452 218.439V218.439C440.452 222.555 442.081 226.502 444.98 229.413C447.879 232.323 451.81 233.958 455.91 233.958H538.769V270.094C538.769 271.896 539.122 273.68 539.809 275.344C540.496 277.008 541.502 278.521 542.771 279.795C544.04 281.068 545.546 282.079 547.204 282.768C548.862 283.458 550.639 283.813 552.433 283.813H552.433C556.057 283.813 559.533 282.367 562.095 279.795C564.658 277.222 566.097 273.733 566.097 270.094V233.958H585.427C586.959 233.958 588.476 233.655 589.891 233.067C591.307 232.478 592.592 231.616 593.676 230.528C594.759 229.441 595.618 228.15 596.204 226.729C596.79 225.308 597.092 223.785 597.092 222.247V222.247C597.092 220.709 596.79 219.187 596.204 217.766C595.618 216.345 594.759 215.054 593.676 213.967C592.592 212.879 591.307 212.016 589.891 211.428C588.476 210.839 586.959 210.537 585.427 210.537V210.537Z" stroke="#F4EDE8" stroke-miterlimit="10"/>
<path d="M948.335 210.537H929.005V153.389C929.005 150.354 927.804 147.443 925.666 145.297C923.529 143.151 920.629 141.945 917.606 141.945H913.076C911.579 141.945 910.097 142.241 908.714 142.816C907.331 143.391 906.074 144.234 905.016 145.297C903.957 146.36 903.117 147.621 902.544 149.01C901.972 150.398 901.677 151.887 901.677 153.389V210.537H847.153C846.032 210.537 844.929 210.245 843.952 209.692C842.976 209.138 842.158 208.34 841.579 207.375C841 206.411 840.68 205.312 840.648 204.187C840.617 203.061 840.875 201.946 841.399 200.951L899.106 91.2979C899.826 89.9308 900.262 88.4316 900.388 86.8906C900.515 85.3496 900.329 83.7989 899.841 82.3321C899.354 80.8653 898.576 79.5128 897.554 78.3562C896.532 77.1996 895.287 76.2629 893.895 75.6026L890.488 73.9876C887.843 72.7336 884.819 72.5484 882.041 73.4704C879.264 74.3924 876.946 76.351 875.567 78.941L805.186 211.123C803.987 213.374 803.36 215.887 803.36 218.439C803.36 222.555 804.989 226.502 807.888 229.413C810.787 232.323 814.718 233.958 818.818 233.958H901.677V270.094C901.677 273.733 903.116 277.222 905.679 279.795C908.241 282.367 911.717 283.813 915.341 283.813V283.813C918.965 283.813 922.441 282.367 925.003 279.795C927.566 277.222 929.005 273.733 929.005 270.094V233.958H948.335C949.867 233.958 951.384 233.655 952.799 233.067C954.214 232.478 955.5 231.616 956.583 230.528C957.667 229.441 958.526 228.15 959.112 226.729C959.698 225.308 960 223.785 960 222.247V222.247C960 219.141 958.771 216.163 956.584 213.967C954.396 211.77 951.429 210.537 948.335 210.537V210.537Z" stroke="#F4EDE8" stroke-miterlimit="10"/>
<path d="M699.225 66.6882C652.414 66.6882 618.805 96.648 618.805 166.554C618.805 245.781 652.414 266.753 699.225 266.753C746.036 266.753 781.648 243.784 781.648 166.554C781.648 83.9983 746.036 66.6882 699.225 66.6882ZM699.533 240.455C667.11 240.455 650.172 221.48 650.172 166.605C650.172 118.187 667.804 92.6533 700.226 92.6533C732.648 92.6533 750.281 109.425 750.281 166.605C750.28 220.096 731.955 240.455 699.533 240.455V240.455Z" stroke="#FF9000" stroke-miterlimit="10"/>
<defs>
<clipPath id="clip0">
<rect width="358.255" height="207.819" fill="white" transform="translate(0 74.4426)"/>
</clipPath>
</defs>
</svg>
